<?xml version="1.0" encoding="utf-8"?>
<!-- Generator: Adobe Illustrator 24.1.1, SVG Export Plug-In . SVG Version: 6.00 Build 0)  -->
<svg version="1.1" id="Capa_1" xmlns="http://www.w3.org/2000/svg" xmlns:xlink="http://www.w3.org/1999/xlink" x="0px" y="0px"
	 viewBox="0 0 600 600" style="enable-background:new 0 0 600 600;" xml:space="preserve">
<style type="text/css">
	.st0{fill:#ECF0F1;}
	.st1{fill:#A46C47;}
	.st2{fill:#955932;}
	.st3{fill:#B38160;}
	.st4{fill:#763810;}
	.st5{fill:#F3D4CF;}
	.st6{fill:#FFF4F3;}
	.st7{fill:#E4B3AB;}
	.st8{fill:none;stroke:#C5796D;stroke-width:4.5;stroke-miterlimit:12;}
	.st9{fill:url(#SvgjsPath3567_1_);}
	.st10{fill:#09AAC5;}
	.st11{fill:#009CB6;}
	.st12{fill:#1FBAD4;}
	.st13{fill:#008197;}
	.st14{fill:#F3D4CF;stroke:#C5796D;stroke-width:4.5;stroke-miterlimit:12;}
	.st15{fill:#C5796D;}
	.st16{fill:#EBC3BD;}
	.st17{fill:url(#SvgjsPath3619_1_);}
	.st18{fill:url(#SvgjsPath3472_1_);}
	.st19{fill:#4E60A3;}
	.st20{fill:url(#SvgjsPath2814_1_);}
	.st21{fill:url(#SvgjsPath2818_1_);}
	.st22{opacity:0.9;enable-background:new    ;}
	.st23{opacity:0.5;fill:url(#SvgjsPath2824_1_);enable-background:new    ;}
	.st24{opacity:0.5;fill:url(#SvgjsPath2828_1_);enable-background:new    ;}
	.st25{opacity:0.75;fill:url(#SvgjsPath2832_1_);enable-background:new    ;}
	.st26{fill:url(#SvgjsPath3498_1_);}
	.st27{fill:url(#SvgjsPath3503_1_);}
	.st28{fill:url(#SvgjsPath3480_1_);}
	.st29{fill:url(#SvgjsPath2837_1_);}
	.st30{fill:url(#SvgjsPath2841_1_);}
	.st31{opacity:0.5;fill:url(#SvgjsPath2847_1_);enable-background:new    ;}
	.st32{opacity:0.5;fill:url(#SvgjsPath2851_1_);enable-background:new    ;}
	.st33{opacity:0.75;fill:url(#SvgjsPath2855_1_);enable-background:new    ;}
	.st34{fill:url(#SvgjsPath3519_1_);}
	.st35{fill:url(#SvgjsPath3524_1_);}
	.st36{fill:url(#SvgjsPath2772_1_);}
	.st37{fill:url(#SvgjsPath2776_1_);}
	.st38{fill:#2A232B;}
	.st39{opacity:0.2;fill:#FFFFFF;enable-background:new    ;}
	.st40{opacity:0.1;fill:#A46C47;enable-background:new    ;}
	.st41{fill:#85481F;}
	.st42{fill:#26120B;}
	.st43{display:none;opacity:0.5;fill:#ECF0F1;enable-background:new    ;}
</style>
<g id="svga-group-backs-single">
	<path id="SvgjsPath3563" class="st0" d="M675,675H-75V-75h750V675z"/>
</g>
<g id="svga-group-humanwrap-move" transform="matrix(1,0,0,1,0,0)">
	<g id="svga-group-humanwrap" transform="matrix(1,0,0,1,0,0)">
		<g id="svga-group-hair-back-move" transform="matrix(1,0,0,1,0,0)">
			<g id="svga-group-hair-back" transform="matrix(1,0,0,1,0,0)">
				<path id="SvgjsPath3534" class="st1" d="M57.8,835.4c-9,0-16.5-2.5-21.8-7.3c0.8,0.2,1.7,0.3,2.6,0.3c10.4,0,27.5-9.7,34-22.2
					c0.7-6.2-1.2-13.1-5.4-20.7c-9.9-17.5-26.5-22.4-43.9-27.6c-14.5-4.3-29.6-8.7-40.5-21.2c-29.9-31.8-27.6-69.8,6.7-113
					c-0.3-2.1-0.4-3.2-0.6-4.4c-11.6-22.3-13.7-42.5-6.2-60.2c9.6-22.8,34.9-40.8,73.2-52.1l0.2-0.1l0-0.2c-0.6-7.2,2.4-15,8.1-21.5
					c7.7-8.8,19.3-14.1,32.5-14.8l0.5,0l-0.3-0.4c-8.7-12.6-10.4-26.1-4.7-36.8c4.4-8.4,12.7-13.8,21.2-13.8c5,0,9.6,1.9,13.3,5.5
					c0.3,0.2,1.5,1.6,1.8,2c3.1,4,4.2,8.7,3.5,14.8c-1.1-11.6-8.6-15.8-15.7-15.8c-8.6,0-16.7,5.6-19.5,13.3
					c-1.9,5.4-2.7,16.5,13.8,29.8l0.4-0.4c-5.3-7.8-7-15.1-5.3-21.6c1.7-6.6,7-12.2,15.7-16.8c-6.3,9.6-2.9,22,3.9,29.7
					c7.1,8,21,12.4,39.2,12.4c28.5,0,58.7-10.4,68.6-23.7c8.7-11.6,7.8-30,6.7-36.8c9.5,9.2,14.8,26.1,14.6,46.8
					c-0.3,32.5-15.1,79.8-55.5,114.9c-15.4,13.4-32.8,24.5-49.7,35.3c-5.2,3.3-10.4,6.6-15.5,10c-64.4,42.2-48.4,78.1-31.4,116
					c2,4.6,4.2,9.3,6.1,14c16.4,21.3,13.1,39.5,7.5,51C105,822,77.8,835.4,57.8,835.4L57.8,835.4z"/>
				<path id="SvgjsPath3535" class="st2" d="M37.4,573.3c2.6-4.1,7-11.6,14.5-19.8c37.4-42.4,118.1-42.3,155.4-66.2
					c13.5-8.4,39.5-35.6,16-11.7c-22.8,22.9-51,31-108.4,46c-58.9,15.3-71.2,45.1-77.6,51.5C37.4,571.1,37.4,570.3,37.4,573.3z
					 M126.2,558.1c55.6-31.6,82.9-13.9,121.2-84.5c4-7.5,6.3-12.1,5.8-11.2c-42.8,85.5-76,51.1-153.8,111.6
					c-3.3,2.6-14.9,11.7-14.2,15.8C85.3,589.8,82.2,583.3,126.2,558.1z M181,485c26.1-5.9,44.2-18.9,41.2-17.2
					c-61.9,32.2-152.2-1.9-158.9,51.7C72.5,477.5,123.4,499.6,181,485z M44,728.9c5.9,7.9,16.4,19.6,23.8,33.6c3,6.1,5,9.8,4.6,9.1
					c-0.4-0.7-2.2-5.4-5.3-11.9c-16.6-32.8-78.3-97.2-29.6-144.4C2.9,646.2,16.3,691.9,44,728.9z M111.4,459.6
					c3.3,5.8,9.5,9.9,14.9,11.4c10.9,3.5-17.5-3.6-14.8-23.6c0.5-5,2.9-9.8,3.4-11.1C109.9,444.8,108,451,111.4,459.6z"/>
				<path id="SvgjsPath3536" class="st3" d="M72.5,552.9C30.3,570.4-61.6,684.2,9,730.6l5.1,3.6C63.8,763.6,55.5,758.5,75,780
					c-14.5-16.2-34.9-25.1-54.4-33.4c-8.1-3.5-17.1-7.5-24.5-13.3C-19.7,721.8-27,709-30.8,693.6C-43.1,650.4,27.6,569,72.5,552.9z
					 M57,638.2c-6.6,21.9-7.6,44,0.5,66.4c5.4,11.5-2.1-23.6-1.7-29.7c1.9-27.3,13.6-50,31-70.8c25.4-33.8,60.8-42.4,104.1-65.5
					C135.5,562,78.8,569,57,638.2z M214.7,475.4c-8.7,5.5-17.1,9.1-16.7,8.8c-60.1,21.4-147.4,13.2-168,95.5c0,0,0.6-1.8,1.7-5.1
					c1.6-5.7,7.8-19.5,16.9-29.2c24.2-26.6,63.3-31.4,87.3-36.9c13.8-3,32.2-7.4,45.5-11.9c35.1-12.1,52.8-33,57.4-45.4
					c0.4-0.9,0.6-1.5,0.9-2C237.6,453.1,229.5,466.4,214.7,475.4z M239.7,449.2C240.4,447.7,240.4,447.5,239.7,449.2L239.7,449.2z
					 M142.4,483c28.1,0.8,55.8-0.9,82.5-19.2c15.7-10.6,21.7-24.9,20.1-39.2c-0.2-2.4-0.3-3.5-0.3-2.9c-0.1,1,0.8,7.9-2.2,16.9
					c-1.9,5.6-5.1,10.4-9.2,14.4c1.1-2.2,1.8-4.7,1.9-7.5c-0.6,1-1.2,2-1.9,3c-10,13.3-40.1,23.7-68.6,23.7
					c-18.2,0-32.1-4.4-39.2-12.4c-6.8-7.7-10.2-20.2-3.9-29.7c-1,0.5-2,1.1-3,1.7c-2.9,10.7-4.4,20.3,1.6,27.2
					c8,9.2,18.7,14.5,30.5,16.8c-18,0.8-34.5,0.8-45,1.9c-42.2,4.2-42.5,24.5-44.9,32.4C70.6,480.9,88,481.1,142.4,483z M93,438
					c4.8-12,17.3-16.3,29.8-16c-2.9-1.7-6.1-2.6-9.5-2.6c-8.4,0-16.7,5.4-21.2,13.8c-5.7,10.8-4,24.2,4.7,36.8l0.3,0.4l-0.5,0
					c-13.2,0.7-24.8,5.9-32.5,14.8c-5.7,6.5-8.6,14.3-8.1,21.5l0,0.2l-0.2,0.1c-38.2,11.3-63.5,29.4-73.2,52.1
					c-6.4,15.2-5.8,32.2,1.8,50.8c-7.7-47.3,19.4-84.1,72.9-98.3c-1.5-4.7,5-17.1,11.7-25.7c3.9-5,21-18,36-12C96,465,90,453,93,438
					z"/>
				<path id="SvgjsPath3537" class="st4" d="M239.5,410.8c1.4,6.8,2.2,25.8-6.5,37.5c-16.7,22.2-87.2,34.1-107.4,11.3
					c-7.4-8.3-10.2-21.1-3.2-30.3c-19.9,9.9-21.7,24.4-11.6,39.4c-42.6-34.3,21-62.6,21-24c1.2-6.4,1-12.6-3.1-17.9
					c0,0,0-0.1-0.1-0.1c-0.2-0.3-1.5-1.9-1.8-2c-18.5-18.1-54.3,10.3-30.2,45.4c-26.5,1.4-42.1,20.6-40.8,36.6
					c-61.2,18.2-96.8,56-67.2,112.7c0.2,1.2,0.3,2.4,0.7,4.2c-30.3,38.2-40.2,77.7-6.7,113.3c23.7,27,66,16.3,84.4,48.7
					c3.4,6,6.2,13.3,5.4,20.4c-7.7,14.8-29.4,24.6-37.4,21.4c28.8,28.7,118.2-21.6,73.9-79c-17.5-42.3-47-82.3,25.2-129.6
					c22.1-14.6,45.2-27.8,65.3-45.3C260.2,520.6,266.8,435.6,239.5,410.8z M55.8,507.5c0.1,1.2,0.5,3.1,0.8,4.1
					c-49.7,21.8-72.2,63.7-68.4,104.8C-37.1,562.5-1.2,525.4,55.8,507.5z M-10,622.2c0.1,0.1,0.1,0.1,0.1,0.2c0,0-0.1,0-0.1,0.1
					C-10,622.4-10,622.3-10,622.2z M215.7,551.4C169.1,604.5,78.2,625.1,85,688.6c3.6,33.1,30.4,66.9,34.1,81.9
					c9.5,39.4-53.9,80-82.3,57.9c13.3,1.4,28.6-8.8,35.8-20.9c0.9-3.3,0.9-12.9-5.8-24.2c-17-29.1-51-22.8-76.5-43.3
					c-11.4-9.2-20.4-21.8-24.5-36c-10.6-36.6,15.9-68.3,25.1-82.2c0,0-1.1-2.1-1.2-2.4c-5.2-41.4,24.2-92,67.9-107.9
					c-0.1-0.3-0.7-3.3-0.7-5.2c-0.2-19.2,22.6-35.8,40.5-35.8c-21.9-36.7,11.3-60.5,28.5-45.2c0.1,0.1,1.2,1.1,1.7,1.7
					c0.1,0,0.1,0.1,0.1,0.2c2.9,3.4,4,7.7,4,12.1c-0.8-4.4-2.5-8.3-6.1-11.2c-9.2-13.4-60,12.1-10.6,45
					c-12.6-16.8-13.2-32.4,5.9-42.7c-5.6,8.5-3.8,20.8,3.4,29.5c17.6,21.2,68.9,14.8,92.3,3c16.7-8.4,28.1-20.7,23.8-50.2
					C269.1,445.9,244.7,518.4,215.7,551.4z"/>
			</g>
		</g>
		<g id="svga-group-humanbody-single">
			<path id="SvgjsPath2780" class="st5" d="M572.6,599.6c-18-30.5-40.4-35.9-58.9-41.8c-19-6-58-9.5-79.3-13.8
				c-20.6-4.1-69.5-17.4-70-40.5c-0.6-24.2,12.9-120.3,12.9-120.3H222c0,0,13.5,96.1,12.9,120.3c-0.6,23.1-49.4,36.3-70,40.5
				c-21.3,4.3-60.4,7.8-79.3,13.8c-18.5,5.9-40.9,11.3-58.9,41.8c-10.9,18.5-18,48.4-18,81.4h582C590.6,648,583.5,618.1,572.6,599.6
				z"/>
			<path id="SvgjsPath2781" class="st6" d="M364.3,503.5c7.5,32.8,54.5,41.1,78.9,46c65.7,13.1,101.3,15.4,126.9,58.6
				c8.7,14.7,16.4,47.6,17.9,72.5c5.5,0.9,1.6-52.3-15.4-81c-29.2-49.4-87.3-45.4-138.2-55.6C413.8,539.9,364.9,526.6,364.3,503.5
				L364.3,503.5z M235.7,503.5c-0.6,23.1-49.4,36.3-70,40.5c-51,10.2-109,6.2-138.2,55.6c-17,28.7-20.9,81.9-15.4,81
				c1.5-24.9,9.2-57.7,17.9-72.5c25.6-43.2,61.2-45.5,126.9-58.6C181.2,544.6,228.2,536.3,235.7,503.5L235.7,503.5z"/>
			<path id="SvgjsPath2782" class="st7" d="M153.6,568.5c0,0,85.9,0.9,100.4,5.7c6.9,2.3,25.1,16.9,25.1,16.9s-19.7-9.5-26-11.3
				C238.5,575.7,153.6,568.5,153.6,568.5z M299.4,600c6.2-0.1,23.7-11.4,23.7-11.4s-16.7,6.2-22,6.5c-4.5,0.3-19.1-3.7-19.1-3.7
				S294.3,600.1,299.4,600z M351,578.3c20.3-5.5,89.4-9.7,89.4-9.7s-71.4-1.5-91.5,5.2c-6.8,2.3-22.7,15.5-22.7,15.5
				S344.4,580.1,351,578.3z"/>
			<path id="SvgjsPath2783" class="st8" d="M572.6,599.6c-29.2-49.4-87.4-45.4-138.2-55.6c-20.6-4.1-69.5-17.4-70-40.5
				c-0.6-24.2,12.9-120.3,12.9-120.3H222c0,0,13.5,96.1,12.9,120.3c-0.6,23.1-49.4,36.3-70,40.5c-21.3,4.3-60.4,7.8-79.3,13.8
				c-18.5,5.9-40.9,11.3-58.9,41.8c-10.9,18.5-18,48.4-18,81.4h582C590.6,648,583.5,618.1,572.6,599.6z"/>
		</g>
		<g id="svga-group-chinshadow-single">
			
				<linearGradient id="SvgjsPath3567_1_" gradientUnits="userSpaceOnUse" x1="36.5372" y1="434.0633" x2="36.5372" y2="468.9823" gradientTransform="matrix(3 0 0 -3 190 1816)">
				<stop  offset="0" style="stop-color:#E4B3AB;stop-opacity:0.8"/>
				<stop  offset="0.7" style="stop-color:#C5796D"/>
			</linearGradient>
			<path id="SvgjsPath3567" class="st9" d="M300,513c22.4,0,43.7-7.9,62.6-19.7c1.5-26.1,8.1-77.4,11.2-99.7
				c-44.3-4.7-104.3-4.7-148.4,0.1c3,22.2,9.6,72.9,11.1,99.1C255.7,504.9,277.3,513,300,513z"/>
		</g>
		<g id="svga-group-clothes-single">
			<path id="SvgjsPath3556" class="st10" d="M6.8,673.3c-7.4-62,20.5-106,88.2-125.2c19.9-5.6,42.7-8.5,45.7-8.7
				c-0.1-0.5-0.1-0.5-0.1-1.6h-0.1c0.2-20.5,23.1-16.5,29.6-17.9c25.9-5.5,34.7-32.6,64.2-25.5c0.7,6.2,0.2,13.4-3.5,40
				c27.9,59.9,58.1,54.7,68.8,88.3c9.7-30,44.3-34.8,69.8-88.3c-1.7-15-5.3-28.2-3.8-40.7l0.2-0.1c19.8-6.6,28.4,2.2,36.3,9.8
				c24,23.2,36.8,8.5,48.8,19.1c4.8,4.2,6.5,10.2,6.5,16.6c54.7,7.9,147.2,11,134.7,132.6l0.2,0.3C536.8,672,163.3,685.8,6.8,673.3z
				"/>
			<path id="SvgjsPath3557" class="st11" d="M300.6,619.9c10.8-27.2,43.3-33.5,67.9-83.7c0.2-0.3,0.9-1.5,1.7-3.2
				c-0.4-4.7-0.9-9.6-3.1-14.7c-1.3-8.6-2.4-16.6-1.5-24.3c5,1.5,9.8,3.2,13.1,6.8c4.8,5.2,1.2,14.3-3.4,23.1
				C366.5,561.5,344.8,588.7,300.6,619.9z M506.6,592.2c7.5,26.5,12.5,54.5,6.5,81.4c5-0.1,6.9-0.2,11.5-0.4
				C526.7,645,521.6,614.2,506.6,592.2z M396,597c-32.7,19.1-65.7,26.4-95.4,51.8c-29.7-25.3-63-29.7-95.7-48.8
				c-15-6-38-27.3-52.1-42.3c44.3,67.1,75.9,48.1,146.8,93.3c70.9-45.2,102.8-29.9,147-97C432.5,569,411,591,396,597z M299.4,623
				c-10.8-27.2-42.1-36.7-66.6-86.8c-0.2-0.3-0.9-1.5-1.7-3.2c0.4-4.7-0.7-9.8,1.5-15c1.3-8.6,1.9-15.6,1-23.3c-5,1.5-7.7,2.5-11,6
				c-4.8,5.2-1.2,14.3,3.4,23.1C234.7,561.5,255.1,591.9,299.4,623z M85.6,589.2c-11,24-11.1,55.8-9,84c4.7,0.1,6.5,0.2,11.5,0.4
				C82.1,646.7,83.6,616.2,85.6,589.2z M299.6,628.2c41.9-12.5,86.4-35.5,123.4-91.5c-33.4,45.1-83.1,71.7-122.5,88
				c-40.6-14.7-89.2-44-117.6-83.3C216.2,595.7,257.7,615.7,299.6,628.2z"/>
			<path id="SvgjsPath3558" class="st12" d="M592.2,672c-0.3,0-0.6,0-1,0c-1.1-22.8-3.2-46.2-15.2-66.8c-24-45-75-46.1-123-56.2
				c-6,0-9.1-16.6-13.5-21c-3.8-3.8-32.6-3.8-41.8-28.5c1.5,1.3,2.9,2.7,4.3,4c24,23.2,36.8,8.5,48.8,19.1
				c4.8,4.2,6.5,10.2,6.5,16.6c54.7,7.9,147.2,11,134.7,132.6L592.2,672z M6.1,675c0.3,0,0.6,0,1,0c1.1-22.8,3.5-41.4,15.5-62
				c24-45,75.9-55.1,123.9-65.2c8.8-3.3,4.2-9.7,8.6-14.1c3.8-3.8,24.6-3.8,53.5-34.2c-1.5,1.3-7.9,2.7-9.2,4
				c-24,23.2-42.1,16.6-48.8,19.1c-8.2,3-9.5,10.3-9.5,16.7c-54.7,7.9-141,24-134.7,135.5L6.1,675z"/>
			<path id="SvgjsPath3559" class="st13" d="M588.5,614.5c-18.9-67.3-84.3-68.4-130.9-75.6c0-25.2-23.7-20.2-34.6-22.5
				c-24-5.2-23.3-33-57.7-22.9c-1.4,11.9,1.3,22.3,3.8,40.9c-25.2,53-60.3,59-69.5,87.4c-10.1-31.6-41-28.4-68.5-87.3
				c3.8-27.7,4.2-34.1,3.5-40.3c-26.3-6-32.2,11-55.9,22.4c-14.4,6.7-18.5,0.7-30.8,6.7c-5.1,2.5-7.7,9.2-7.5,14.7c0,0,0,0,0,0
				c0,0.4,0,0.7,0.1,1c-3,0.2-25.8,3.1-45.4,8.7C26.4,567.2-1,611.9,6.5,673.6c30.4,0,60.3,11.2,525.8-0.2
				c21.6-0.5,58.3-1.1,59.8-1.1C592.7,669.3,595.4,639.3,588.5,614.5z M6.9,672.9c-3.4-81.9,51.7-119.3,133-132.2
				C185.9,617,242.1,605.9,299,648.5c-51.5-42.8-105.6-37.2-157.5-108.8c-0.6-6,2.6-12.6,9-15.2c4.6-1.8,9.5-1.3,14.3-1.3
				c18.1,0.2,32.1-14,45.5-24.4c6.4-4.3,15.9-4.5,23.5-3.3c0.6,9.9-3.2,24.8-4.5,35.4c-2.7-5.9-5.2-11.9-7.7-17.9
				c31.9,93.5,63.6,72.3,77.9,111.2c-3-0.8-53.7-19.1-94.1-59.2c-8.6-8.5-25.6-27.2-26.9-28.9c50,67.7,82,71.1,121.1,88.6
				c0,0,0,0.1,0,0.1c0,0.1,0.2,0.6,0.2,0.7c0.2-0.1,0.4-0.2,0.6-0.2c0.1-0.1,0.1-0.1,0.2-0.1c5.4-2.6,41.1-15.1,68.2-33.7
				c27.9-19.2,59.8-60.8,57.4-57.8c-46.7,47.4-53.9,58.2-125.8,91.1c-0.1,0-0.1,0-0.2-0.1c-0.1-0.3-0.1-0.7-0.3-1
				c0-0.2,0.1-0.3,0.1-0.5c12.6-34.7,49.8-21.3,80.5-116.3c-3.2,8.2-6.5,16.3-10.2,24.2c-1.2-13.9-5.2-24.9-4.8-36.4
				c5.3-1.8,19.8-2.6,23.8,1.4c16.7,14.3,18,24.7,45.2,24.7c8.7,0.1,20.1,1.2,21.4,17.1c-1.6,2.4-13.5,16.4-24.8,27.6
				c-39.5,39.2-74.8,40-129.4,81.8c1.4,0,4.1-2.9,5.2-3.6c42.7-30.3,73.4-29.8,112.7-61.9c18.1-14.8,35.5-38.4,37.4-41.4
				c0.1,0,0.2,0,0.2,0c72.1,12.4,136.7,24.2,133.8,131.5C268.3,669.7,166.7,678.3,6.9,672.9z"/>
		</g>
		<g id="svga-group-head" transform="matrix(1,0,0,1,0,0)">
			<g id="svga-group-ears-left-move" transform="matrix(1,0,0,1,0,0)">
				<g id="svga-group-ears-left" transform="matrix(1,0,0,1,0,0)">
					<path id="SvgjsPath3574" class="st14" d="M141,251.9c-4.1-6.9-16.9-24-29.9-19.8c-8.2,2.6-9.9,11.3-11.2,18.9
						c-1.8,10.2,1.4,30.2,4.2,37.5c2.6,7,10.6,20.4,15.8,25.6c6.4,6.3,14.3,26.4,15.6,28.5c2,3.3,4.6,8.2,12.4,7.6
						c8.6-0.7,13.8-5.2,17.6-6C174.8,342.3,151.7,270,141,251.9z"/>
					<path id="SvgjsPath3575" class="st15" d="M132.6,294c-0.4-1.6,0-4.4,0.4-7.1c0.4-2.4,0.7-4.7,0.5-6.4c-0.8-6.1-5.3-17.7-8.3-24
						c-3.4-7.2-8.9-16.3-15.8-18.7c-2.8-1-4.7,0.2-5.8,1.4c-0.8,0.9-1,1.9-0.7,2c0.3,0.1,0.9-0.7,1.7-1.5c0.7-0.6,1.7-1.2,3.2-1.1
						c-0.6,3-3.5,19.5-2.2,30.7c1,8.8,4.8,15.4,5.4,16.4c0.1,1,0.2,2.1,0.4,3c2.8,12.9,14.9,27.5,19.1,32.3c0.8,0.9,1.6,1.4,1.8,1.2
						c0.2-0.2-0.3-1.1-1.1-2c-4.2-4.8-16.2-19.3-18.9-31.7c-2.9-13.2,7-32.7,9.1-36.8c1.1,1.9,2.1,3.8,2.8,5.4
						c0.6,1.2,1.2,2.6,1.9,4.2c-1.3,2.2-10.3,17.9-7,30.5c1.2,4.6,6.7,10.6,10.3,12.3c2,0.9,2.8,2.3,3.6,3.8c1,1.8,2.2,3.9,5.5,5.4
						c0.7,0.3,1.3,0.4,1.8,0.4c0.9,0,1.7-0.4,2.2-0.8c0.1,0.8,0.1,1.8,0,2.8c0,1.2,0.1,2.2,0.4,2.2c0.3,0,0.6-0.9,0.6-2.2
						c0-1.5,0-3.3-0.2-4.2c-0.7-2.6-3-5.5-5.4-8.6C135.7,299.7,133.2,296.5,132.6,294z M110.9,282.6c-6.5-20.2,2-37.6,3.4-40.4
						c2.5,2.3,4.8,5.4,6.6,8.5C119.6,253.1,111.1,269,110.9,282.6z M139,312.1c-3-1.3-4-3.2-5-4.9c-0.9-1.6-1.8-3.2-4.1-4.3
						c-0.5-0.2-1.1-0.6-1.6-1c-7.5-17.7,0.8-25.5,2.9-27.1c0.6,2.2,1.1,4.2,1.3,5.7c0.2,1.5-0.2,3.8-0.5,6c-0.4,2.8-0.9,5.7-0.4,7.5
						c0.7,2.8,3.2,6,5.7,9.2c2.2,2.8,4.4,5.7,5.2,8C142.1,311.9,141.1,313,139,312.1z"/>
				</g>
			</g>
			<g id="svga-group-ears-right-move" transform="matrix(1,0,0,1,0,0)">
				<g id="svga-group-ears-right" transform="matrix(1,0,0,1,0,0)">
					<path id="SvgjsPath3576" class="st14" d="M458.2,251.9c4.1-6.9,16.9-24,29.9-19.8c8.3,2.6,9.9,11.3,11.2,18.9
						c1.8,10.2-1.4,30.2-4.2,37.5c-2.6,7-10.6,20.4-15.8,25.6c-6.4,6.3-14.3,26.4-15.6,28.5c-2,3.3-4.6,8.2-12.4,7.6
						c-8.6-0.7-13.8-5.2-17.6-6C424.5,342.3,447.5,270,458.2,251.9z"/>
					<path id="SvgjsPath3577" class="st15" d="M461.2,302.7c-2.4,3.1-4.7,6-5.4,8.6c-0.3,0.9-0.3,2.7-0.2,4.2c0,1.2,0.3,2.2,0.6,2.2
						s0.4-1,0.4-2.2c0-0.9,0-2,0-2.8c0.5,0.5,1.2,0.8,2.2,0.8c0.5,0,1.2-0.1,1.8-0.4c3.3-1.5,4.5-3.5,5.5-5.4
						c0.9-1.6,1.6-2.9,3.6-3.8c3.6-1.6,9.1-7.6,10.3-12.3c3.3-12.6-5.7-28.3-7-30.5c0.7-1.5,1.3-3,1.9-4.2c0.7-1.6,1.7-3.4,2.8-5.4
						c2.2,4.1,12,23.6,9.1,36.8c-2.7,12.4-14.7,27-18.9,31.7c-0.8,0.9-1.3,1.8-1.1,2c0.2,0.2,1-0.3,1.8-1.2
						c4.2-4.8,16.3-19.4,19.1-32.3c0.2-1,0.4-2,0.4-3c0.6-1,4.4-7.6,5.4-16.4c1.3-11.2-1.7-27.6-2.2-30.7c1.4-0.1,2.4,0.4,3.2,1.1
						c0.9,0.8,1.5,1.6,1.7,1.5c0.3-0.1,0.1-1.1-0.7-2c-1.1-1.2-3-2.3-5.8-1.4c-6.9,2.3-12.4,11.4-15.8,18.7c-3,6.3-7.5,17.9-8.3,24
						c-0.2,1.6,0.1,3.9,0.5,6.4c0.4,2.7,0.8,5.4,0.4,7.1C466,296.5,463.6,299.7,461.2,302.7z M478.3,250.7c1.8-3,4.1-6.1,6.6-8.5
						c1.5,2.8,10,20.2,3.4,40.4C488.1,269,479.6,253.1,478.3,250.7z M456.8,311.4c0.8-2.3,3-5.2,5.2-8c2.4-3.1,5-6.4,5.7-9.2
						c0.4-1.9,0-4.7-0.4-7.5c-0.3-2.2-0.7-4.6-0.5-6c0.2-1.6,0.7-3.6,1.3-5.7c2.1,1.6,10.3,9.3,2.9,27.1c-0.6,0.4-1.1,0.7-1.6,1
						c-2.3,1-3.2,2.7-4.1,4.3c-1,1.7-2,3.6-5,4.9C458.2,313,457.1,311.9,456.8,311.4z"/>
				</g>
			</g>
			<g id="svga-group-faceshape-wrap" transform="matrix(1,0,0,1,0,0)">
				<g id="svga-group-faceshape-single">
					<path id="SvgjsPath3564" class="st5" d="M300,2.6C199.1,2.4,117.6,83.7,117.4,184.1c0,15.9,2,31.4,5.9,46.2h0
						c0,0.2,26.1,115.8,43.6,151.1c18.2,36.9,71.4,96.5,133.2,96.5c61.7,0,115-59.6,133.2-96.5c17.4-35.2,43.5-150.9,43.6-151.1h0
						c3.8-14.7,5.9-30.2,5.9-46.2C482.5,83.7,400.9,2.4,300,2.6z"/>
					<path id="SvgjsPath3565" class="st16" d="M362.3,13.4c64.3,28,109.2,91.9,109.4,166.4c0,15.9-2,31.4-5.9,46.2h0
						c0,0.2-26.1,115.8-43.6,151.1c-17.1,34.6-64.8,95.8-122.2,95.8s-105-61.2-122.2-95.8c-17.4-35.2-43.5-150.9-43.6-151.1h0
						c-3.9-14.7-5.9-30.2-5.9-46.2c0.1-74.5,45-138.4,109.4-166.4c-70.2,25.2-120.2,92.1-120.4,170.8c0,15.9,2,31.4,5.9,46.2h0
						c0,0.2,26.1,115.8,43.6,151.1c18.2,36.9,71.4,96.5,133.2,96.5c61.7,0,115-59.6,133.2-96.5c17.4-35.2,43.5-150.9,43.6-151.1h0
						c3.8-14.7,5.9-30.2,5.9-46.2C482.5,105.5,432.4,38.6,362.3,13.4z"/>
					<path id="SvgjsPath3566" class="st8" d="M300,2.6C199.1,2.4,117.6,83.7,117.4,184.1c0,15.9,2,31.4,5.9,46.2h0
						c0,0.2,26.1,115.8,43.6,151.1c18.2,36.9,71.4,96.5,133.2,96.5c61.7,0,115-59.6,133.2-96.5c17.4-35.2,43.5-150.9,43.6-151.1h0
						c3.8-14.7,5.9-30.2,5.9-46.2C482.5,83.7,400.9,2.4,300,2.6z"/>
				</g>
			</g>
			<g id="svga-group-mouth-single-move" transform="matrix(1,0,0,1,0,0)">
				<g id="svga-group-mouth-single" transform="matrix(1,0,0,1,0,0)">
					
						<linearGradient id="SvgjsPath3619_1_" gradientUnits="userSpaceOnUse" x1="36.9892" y1="463.3333" x2="36.9892" y2="466.3333" gradientTransform="matrix(3 0 0 -3 190 1816)">
						<stop  offset="0.1" style="stop-color:#EBC3BD"/>
						<stop  offset="1" style="stop-color:#E4B3AB"/>
					</linearGradient>
					<path id="SvgjsPath3619" class="st17" d="M301.4,425c-9.7,0-11.1-8-11.1-8l21.4-0.6C311.7,416.4,309.9,425,301.4,425z"/>
					<path id="SvgjsPath3623" class="st15" d="M299.7,418.2c-5,0-8.8-0.5-9.1-0.6c-0.4-0.1-0.7-0.4-0.6-0.8c0.1-0.4,0.4-0.7,0.8-0.6
						c0.1,0,11.1,1.5,20.3-0.6c0.4-0.1,0.8,0.2,0.9,0.6c0.1,0.4-0.2,0.8-0.6,0.9C307.5,418,303.2,418.2,299.7,418.2z M300.2,402.4
						c-3.9,0-7.6-1.4-11.4-2.1c-4.2-0.8-8.4-0.1-12.7,0.3c-3.6,0.3-7.2,0.3-10.7-0.4c-1.7-0.3-4.2-0.5-5.7-1.5c-1.5-1-1.2-3.3,0.5-4
						c1.6-0.6,4,0.6,5.6,1c1.8,0.3,3.7,0.6,5.5,0.6c4.1,0.1,8.2-0.8,12.2-0.9c4.3-0.1,8.5,1.1,12.7,2c3.7,0.8,7,0.3,10.7-0.5
						c6.4-1.4,12.8-1.7,19.3-2c3.2-0.1,6.5-0.8,9.6-1.7c1.3-0.4,2.9-1.5,4.2-0.8c1.6,0.9,1.5,3.2-0.1,4c-5.3,2.5-11.3,2.9-17.1,3.2
						c-3.7,0.2-7.4,0.4-11.1,1C307.9,401.2,304.1,402.4,300.2,402.4z"/>
				</g>
			</g>
			<g id="svga-group-eyes-left-move" transform="matrix(1,0,0,1,0,0)">
				<g id="svga-group-eyes-left" transform="matrix(1,0,0,1,0,0)">
					<g id="svga-group-eyesback-left">
						
							<radialGradient id="SvgjsPath3472_1_" cx="-3.0231" cy="516.1097" r="15.179" gradientTransform="matrix(-2.7444 0.1437 -0.1569 -2.9958 292.8145 1807.297)" gradientUnits="userSpaceOnUse">
							<stop  offset="0" style="stop-color:#FFFFFF"/>
							<stop  offset="0.544" style="stop-color:#FDFEFE"/>
							<stop  offset="0.74" style="stop-color:#F6F8F9"/>
							<stop  offset="0.879" style="stop-color:#EAEFF2"/>
							<stop  offset="0.992" style="stop-color:#D9E3E8"/>
							<stop  offset="1" style="stop-color:#D8E2E7"/>
						</radialGradient>
						<path id="SvgjsPath3472" class="st18" d="M181.9,251.9c3.7-3.5,27.3-8,40.9-6.2c21.5,2.8,39,21.9,39,21.9s-14.5,9.2-40.8,10.7
							C203.6,279.1,186.2,267.9,181.9,251.9z"/>
					</g>
					<g id="svga-group-eyesiriswrapper-left" transform="matrix(1,0,0,1,-1,0.25)">
						<g id="svga-group-eyesiriscontrol-left" transform="matrix(1,0,0,1,0,0)">
							<g id="svga-group-eyesiris-left" transform="matrix(1,0,0,1,0,0)">
								<path id="SvgjsPath2813" class="st19" d="M248.5,261.5c0,14.1-11.4,25.5-25.5,25.5c-14.1,0-25.5-11.4-25.5-25.5l0,0
									c0-14.1,11.4-25.5,25.5-25.5C237.1,236,248.5,247.4,248.5,261.5L248.5,261.5z"/>
								
									<radialGradient id="SvgjsPath2814_1_" cx="-347.2618" cy="1001.5311" r="84.646" gradientTransform="matrix(0.288 -7.440000e-02 -7.350000e-02 -0.2883 396.3116 524.5055)" gradientUnits="userSpaceOnUse">
									<stop  offset="0" style="stop-color:#FFFFFF;stop-opacity:0.8"/>
									<stop  offset="1" style="stop-color:#FFFFFF;stop-opacity:0"/>
								</radialGradient>
								<path id="SvgjsPath2814" class="st20" d="M220.1,236.3c-0.1,0-0.2,0-0.3,0c0.1,0.6,0.2,1.2,0.4,1.7
									C220.2,237.5,220.2,236.9,220.1,236.3z M220.2,238c0.3,8.4,0.8,15.8,2.2,18.5C223.1,253.6,221.9,246.3,220.2,238z
									 M222.4,256.6c-0.2,0.7-0.5,1.2-0.9,1.4c-0.4,0.2-1,0-1.6-0.4c0.2,0.7,0.2,1.3-0.2,1.6c-0.3,0.3-0.9,0.4-1.6,0.3
									c0.5,0.6,0.7,1.1,0.6,1.5c-0.1,0.4-0.6,0.8-1.2,1c0.7,0.3,1.1,0.6,1.2,1c0.1,0.4-0.1,0.9-0.6,1.5c0.7-0.1,1.3,0,1.6,0.3
									c0.3,0.3,0.3,0.9,0.2,1.6c0.6-0.4,1.1-0.6,1.6-0.4c0.4,0.2,0.7,0.6,0.9,1.4c0.3-0.6,0.7-1.1,1.2-1.1
									c0.4-0.1,0.9,0.3,1.4,0.8c0-0.7,0.2-1.3,0.5-1.5c0.4-0.3,0.9-0.2,1.6,0.1c-0.3-0.6-0.4-1.2-0.2-1.6c0.2-0.4,0.7-0.6,1.5-0.7
									c-0.6-0.4-1-0.8-1-1.3c0-0.5,0.4-0.9,1-1.3c-0.7-0.1-1.2-0.3-1.5-0.7c-0.2-0.4-0.1-1,0.2-1.6c-0.7,0.3-1.2,0.3-1.6,0
									c-0.4-0.3-0.5-0.8-0.5-1.5c-0.5,0.5-0.9,0.8-1.4,0.8C223.1,257.6,222.7,257.2,222.4,256.6z M225,256.9
									c2-2.3,4.3-9.4,6.7-17.4C228,247,225,253.9,225,256.9z M231.6,239.5c0.3-0.5,0.5-1,0.8-1.6c-0.1,0-0.2-0.1-0.3-0.1
									C232,238.4,231.8,238.9,231.6,239.5z M227.1,258.4c2.9-1.1,8.2-6.3,14-12.3C234.4,251.1,228.6,255.7,227.1,258.4z
									 M241.1,246.1c0.4-0.3,0.9-0.6,1.3-1c-0.1-0.1-0.1-0.1-0.2-0.2C241.9,245.3,241.5,245.7,241.1,246.1z M228.3,260.7
									c3,0.4,10.2-1.8,18.2-4.4C238.2,257.6,230.9,259,228.3,260.7z M246.5,256.3c0.5-0.1,1-0.1,1.4-0.2c0-0.1,0-0.2-0.1-0.2
									C247.4,256,246.9,256.1,246.5,256.3z M228.3,263.3c2.5,1.7,9.9,3.2,18.1,4.5C238.5,265.1,231.4,263,228.3,263.3z
									 M246.4,267.8c0.4,0.1,0.8,0.3,1.2,0.4c0-0.1,0-0.1,0.1-0.2C247.3,268,246.9,267.9,246.4,267.8z M227.1,265.6
									c1.4,2.7,7.3,7.4,13.9,12.4C235.3,272,230,266.7,227.1,265.6z M241.1,278c0.2,0.3,0.5,0.5,0.8,0.8c0-0.1,0.1-0.1,0.1-0.1
									C241.6,278.5,241.3,278.3,241.1,278z M225,267.1c0,3.1,3,9.9,6.6,17.5C229.2,276.5,227,269.4,225,267.1z M231.5,284.6
									c0.1,0.3,0.2,0.6,0.3,1c0.1,0,0.1,0,0.2-0.1C231.8,285.2,231.7,284.9,231.5,284.6z M222.4,267.4c-1.4,2.7-2,10.2-2.3,18.5
									C221.8,277.7,223.1,270.4,222.4,267.4z M220.1,285.9c-0.1,0.3-0.1,0.6-0.2,1c0.1,0,0.1,0,0.2,0
									C220,286.6,220.1,286.3,220.1,285.9z M219.9,266.5c-2.5,1.7-6.5,8.1-10.7,15.3C214.6,275.4,219.2,269.4,219.9,266.5z
									 M209.3,281.8c-0.2,0.3-0.5,0.6-0.7,0.8c0.1,0,0.1,0.1,0.2,0.1C208.9,282.4,209.1,282.1,209.3,281.8z M218.2,264.5
									c-3,0.4-9.5,4.2-16.6,8.6C209.4,269.9,216.2,266.8,218.2,264.5z M201.6,273.2c-0.4,0.2-0.7,0.3-1.1,0.5
									c0,0.1,0.1,0.1,0.1,0.2C201,273.6,201.3,273.4,201.6,273.2z M217.6,262c-2.9-1.1-10.3-0.7-18.7,0
									C207.3,262.6,214.7,263.1,217.6,262z M198.9,261.9c-0.5,0-0.9-0.1-1.4-0.1c0,0.1,0,0.2,0,0.2C198,262,198.5,262,198.9,261.9
									z M218.2,259.5c-2-2.3-8.8-5.4-16.5-8.7C208.8,255.2,215.2,259.1,218.2,259.5z M201.7,250.7c-0.4-0.3-0.9-0.6-1.3-0.9
									c0,0.1-0.1,0.2-0.1,0.2C200.8,250.3,201.3,250.5,201.7,250.7z M220,257.5c-0.7-3-5.3-8.9-10.6-15.4
									C213.5,249.4,217.4,255.8,220,257.5z M209.4,242.1c-0.3-0.5-0.6-1-0.8-1.5c-0.1,0.1-0.2,0.1-0.2,0.2
									C208.7,241.2,209,241.7,209.4,242.1z"/>
								
									<radialGradient id="SvgjsPath2818_1_" cx="-339.6395" cy="1085.3431" r="84.7108" gradientTransform="matrix(0.2973 2.656898e-03 3.300000e-03 -0.2973 320.0761 585.1964)" gradientUnits="userSpaceOnUse">
									<stop  offset="0" style="stop-color:#FFFFFF;stop-opacity:0.8"/>
									<stop  offset="1" style="stop-color:#FFFFFF;stop-opacity:0"/>
								</radialGradient>
								<path id="SvgjsPath2818" class="st21" d="M226.8,236.4c-0.1,0-0.2,0-0.3,0c0,0.6-0.1,1.2-0.1,1.8
									C226.5,237.5,226.6,236.9,226.8,236.4z M226.4,238.1c-1.9,8.2-3.3,15.5-2.7,18.5C225.2,253.9,225.8,246.5,226.4,238.1z
									 M223.7,256.6c-0.4,0.6-0.8,1-1.2,1.1c-0.4,0-0.9-0.3-1.4-0.8c0,0.7-0.2,1.3-0.6,1.5c-0.4,0.2-0.9,0.2-1.6-0.1
									c0.3,0.7,0.4,1.2,0.2,1.6c-0.2,0.4-0.7,0.6-1.5,0.7c0.6,0.4,0.9,0.9,0.9,1.3c0,0.5-0.4,0.9-1,1.3c0.7,0.1,1.2,0.3,1.4,0.7
									c0.2,0.4,0.1,1-0.3,1.6c0.7-0.2,1.2-0.3,1.6,0c0.4,0.3,0.5,0.8,0.5,1.5c0.5-0.5,1-0.8,1.4-0.8c0.4,0.1,0.8,0.5,1.1,1.1
									c0.2-0.7,0.5-1.2,0.9-1.3c0.4-0.2,1,0,1.5,0.5c-0.2-0.7-0.1-1.3,0.2-1.6s0.9-0.4,1.6-0.3c-0.5-0.6-0.7-1.1-0.6-1.5
									c0.1-0.4,0.6-0.8,1.3-1c-0.7-0.3-1.1-0.6-1.2-1.1c-0.1-0.4,0.2-0.9,0.7-1.5c-0.7,0.1-1.3,0-1.6-0.4
									c-0.3-0.3-0.3-0.9-0.1-1.6c-0.6,0.4-1.1,0.6-1.6,0.4C224.1,257.8,223.8,257.3,223.7,256.6z M226.1,257.5
									c2.6-1.7,6.6-8,11-15.1C231.6,248.8,226.9,254.6,226.1,257.5z M237.1,242.4c0.4-0.4,0.8-0.9,1.1-1.3
									c-0.1-0.1-0.2-0.1-0.2-0.2C237.7,241.4,237.4,241.9,237.1,242.4z M227.8,259.5c3-0.3,9.6-4,16.7-8.3
									C236.7,254.3,229.9,257.3,227.8,259.5z M244.5,251.2c0.5-0.2,1-0.4,1.5-0.6c0-0.1-0.1-0.2-0.1-0.2
									C245.4,250.7,245,251,244.5,251.2z M228.3,262.1c2.8,1.1,10.3,0.9,18.7,0.4C238.7,261.6,231.2,261.1,228.3,262.1z
									 M247,262.5c0.5,0.1,1,0.1,1.4,0.2c0-0.1,0-0.2,0-0.2C248,262.4,247.5,262.5,247,262.5z M227.7,264.6
									c2,2.3,8.7,5.6,16.3,9.1C237,269,230.7,265,227.7,264.6z M244,273.6c0.4,0.2,0.7,0.5,1.1,0.7c0-0.1,0.1-0.1,0.1-0.2
									C244.8,274,244.4,273.8,244,273.6z M225.9,266.5c0.7,3,5.1,9,10.3,15.6C232.1,274.8,228.4,268.3,225.9,266.5z M236.2,282.1
									c0.2,0.3,0.4,0.7,0.5,1c0.1,0,0.1-0.1,0.2-0.1C236.6,282.7,236.4,282.4,236.2,282.1z M223.4,267.4
									c-0.8,2.9,0.3,10.3,1.8,18.6C225.1,277.6,224.8,270.1,223.4,267.4z M225.3,286c0,0.3,0,0.7,0,1c0.1,0,0.1,0,0.2,0
									C225.4,286.6,225.3,286.3,225.3,286z M220.9,267c-2.1,2.2-4.5,9.3-7,17.3C217.6,276.8,220.8,270.1,220.9,267z M213.8,284.3
									c-0.2,0.3-0.3,0.6-0.4,0.9c0.1,0,0.1,0,0.2,0.1C213.6,284.9,213.7,284.6,213.8,284.3z M218.8,265.5
									c-2.9,1-8.3,6.1-14.3,12.1C211.3,272.7,217.3,268.1,218.8,265.5z M204.5,277.5c-0.3,0.2-0.6,0.4-0.9,0.6
									c0,0,0.1,0.1,0.1,0.1C204,278,204.2,277.8,204.5,277.5z M217.6,263.1c-3-0.4-10.2,1.6-18.2,4
									C207.7,266.1,215,264.8,217.6,263.1z M199.4,267.2c-0.4,0.1-0.8,0.1-1.2,0.2c0,0.1,0,0.1,0.1,0.2
									C198.6,267.4,199,267.3,199.4,267.2z M217.7,260.5c-2.5-1.8-9.8-3.4-18-4.9C207.5,258.5,214.6,260.8,217.7,260.5z
									 M199.6,255.7c-0.4-0.2-0.9-0.3-1.3-0.5c0,0.1,0,0.2-0.1,0.2C198.7,255.5,199.2,255.6,199.6,255.7z M218.9,258.3
									c-1.4-2.7-7.1-7.5-13.7-12.7C210.9,251.7,216.1,257.1,218.9,258.3z M205.2,245.6c-0.4-0.4-0.7-0.8-1.1-1.2
									c-0.1,0.1-0.1,0.1-0.2,0.2C204.4,244.9,204.8,245.2,205.2,245.6z M221.1,256.8c0.1-3.1-2.8-10-6.2-17.6
									C217,247.3,219.1,254.5,221.1,256.8z M214.9,239.2c-0.1-0.5-0.3-1.1-0.4-1.7c-0.1,0-0.2,0.1-0.3,0.1
									C214.4,238.2,214.6,238.7,214.9,239.2z"/>
								<path id="SvgjsPath2822" class="st19" d="M233,261.5c0,5.5-4.5,10-10,10s-10-4.5-10-10s4.5-10,10-10
									C228.5,251.5,233,256,233,261.5z"/>
								<path id="SvgjsPath2823" class="st22" d="M233,261.5c0,5.5-4.5,10-10,10s-10-4.5-10-10s4.5-10,10-10
									C228.5,251.5,233,256,233,261.5z"/>
								
									<linearGradient id="SvgjsPath2824_1_" gradientUnits="userSpaceOnUse" x1="59.9504" y1="512.0357" x2="61.2774" y2="513.6167" gradientTransform="matrix(3 0 0 -3 29 1815.75)">
									<stop  offset="0" style="stop-color:#FFFFFF"/>
									<stop  offset="1" style="stop-color:#FFFFFF;stop-opacity:0"/>
								</linearGradient>
								<path id="SvgjsPath2824" class="st23" d="M209,273.2c1.9-1.3,4.5-0.8,5.8,1.1c1.3,1.9,0.8,4.5-1.1,5.8
									c-1.9,1.3-4.5,0.8-5.8-1.1C206.6,277.1,207.1,274.5,209,273.2L209,273.2z"/>
								
									<linearGradient id="SvgjsPath2828_1_" gradientUnits="userSpaceOnUse" x1="64.3878" y1="520.3622" x2="62.3878" y2="518.3622" gradientTransform="matrix(3 0 0 -3 35 1815.75)">
									<stop  offset="0" style="stop-color:#FFFFFF"/>
									<stop  offset="1" style="stop-color:#FFFFFF;stop-opacity:0"/>
								</linearGradient>
								<path id="SvgjsPath2828" class="st24" d="M230.9,260.1c-1.1,1.6-4.1,1.4-6.8-0.4c-2.7-1.8-4-4.6-3-6.2l0,0
									c1.1-1.6,4.1-1.4,6.8,0.4C230.6,255.8,232,258.5,230.9,260.1C230.9,260.1,230.9,260.1,230.9,260.1z"/>
								
									<linearGradient id="SvgjsPath2832_1_" gradientUnits="userSpaceOnUse" x1="67.9413" y1="523.8087" x2="63.9413" y2="519.8087" gradientTransform="matrix(3 0 0 -3 35 1815.75)">
									<stop  offset="0" style="stop-color:#FFFFFF"/>
									<stop  offset="1" style="stop-color:#FFFFFF;stop-opacity:0"/>
								</linearGradient>
								<path id="SvgjsPath2832" class="st25" d="M243,255.9c-2.4,3.7-8.7,3.9-13.9,0.5c-5.3-3.4-7.6-9.2-5.2-12.9
									c2.4-3.7,8.7-3.9,13.9-0.5C243.1,246.4,245.5,252.2,243,255.9L243,255.9z"/>
							</g>
						</g>
					</g>
					<g id="svga-group-eyesfront-left">
						<path id="SvgjsPath3497" class="st5" d="M166,264c0,41.4,24.2,75,54,75s54-33.6,54-75c0-41.4-24.2-75-54-75S166,222.6,166,264
							z M181.9,251.9c3.7-3.5,27.3-8,40.9-6.2c21.5,2.8,39,21.9,39,21.9s-14.5,9.2-40.8,10.7C203.6,279.1,186.2,267.9,181.9,251.9z"
							/>
						
							<radialGradient id="SvgjsPath3498_1_" cx="59.1495" cy="519.8529" r="16.9217" fx="72.8037" fy="519.4868" gradientTransform="matrix(2.97 0.4233 -0.3255 2.2824 225.7609 -961.1357)" gradientUnits="userSpaceOnUse">
							<stop  offset="0" style="stop-color:#E4B3AB"/>
							<stop  offset="0.7" style="stop-color:#E4B3AB;stop-opacity:0.3"/>
							<stop  offset="1" style="stop-color:#F3D4CF;stop-opacity:0"/>
						</radialGradient>
						<path id="SvgjsPath3498" class="st26" d="M222.5,289.8c28.2,6.7,55.4-4.8,60.6-25.7c5.2-20.9-13.4-43.2-41.7-49.9
							c-28.2-6.7-55.4,4.8-60.6,25.7C175.6,260.8,194.3,283.1,222.5,289.8z M181.9,251.9c3.7-3.5,27.3-8,40.9-6.2
							c21.5,2.8,39,21.9,39,21.9s-14.5,9.2-40.8,10.7C203.6,279.1,186.2,267.9,181.9,251.9z"/>
						
							<radialGradient id="SvgjsPath3503_1_" cx="5.8803" cy="497.3065" r="29.51" gradientTransform="matrix(3.1008 0 0 -3.1008 193.753 1882.8186)" gradientUnits="userSpaceOnUse">
							<stop  offset="0.95" style="stop-color:#000000;stop-opacity:0"/>
							<stop  offset="1" style="stop-color:#000000;stop-opacity:0.3"/>
						</radialGradient>
						<path id="SvgjsPath3503" class="st27" d="M181.9,251.9c3.7-3.5,27.3-8,40.9-6.2c21.5,2.8,39,21.9,39,21.9s-14.5,9.2-40.8,10.7
							C203.6,279.1,186.2,267.9,181.9,251.9z"/>
						<path id="SvgjsPath3507" class="st15" d="M262.3,251c-19.5-12.8-12.2-9.3-48.7-20.1c10,1.5,28.7,6.2,35.1,10
							C252.2,242.8,259.3,248.3,262.3,251z"/>
						<path id="SvgjsPath3508" d="M166,248.9c0,0,6.3,3.9,11.1,3.9c0.4,2.3,6.7,12.8,17.6,19c16.5,9.5,35.7,6.5,54,1.9
							c9-2.2,8.4-4.6,23.3-6.2c-11.7-4.7-10.5-7.5-26.7-16.3c7.4,1.4,17.3,6.9,17.3,6.9c-3.7-4.4-29.8-20.4-71.5-22.5
							c0,0,13.9,3.3,19.2,5.3c-24.1,3.3-30.7-0.3-32-1.3c1.1,0.9,3.6,3.7,9,5.6c-5.6,0.4-15.9-2.6-15.9-2.6s2.6,2.5,7.9,5.9
							C175,250.8,166,248.9,166,248.9z M181.9,252.2c3.7-3.4,27.3-7.7,40.9-6c21.5,2.7,39,21.1,39,21.1s-14.5,8.9-40.8,10.3
							C203.6,278.5,186.2,267.7,181.9,252.2z"/>
					</g>
				</g>
			</g>
			<g id="svga-group-eyes-right-move" transform="matrix(1,0,0,1,0,0)">
				<g id="svga-group-eyes-right" transform="matrix(1,0,0,1,0,0)">
					<g id="svga-group-eyesback-right">
						
							<radialGradient id="SvgjsPath3480_1_" cx="66.0174" cy="519.4214" r="15.179" gradientTransform="matrix(2.7444 0.1437 0.1569 -2.9958 117.187 1807.297)" gradientUnits="userSpaceOnUse">
							<stop  offset="0" style="stop-color:#FFFFFF"/>
							<stop  offset="0.544" style="stop-color:#FDFEFE"/>
							<stop  offset="0.74" style="stop-color:#F6F8F9"/>
							<stop  offset="0.879" style="stop-color:#EAEFF2"/>
							<stop  offset="0.992" style="stop-color:#D9E3E8"/>
							<stop  offset="1" style="stop-color:#D8E2E7"/>
						</radialGradient>
						<path id="SvgjsPath3480" class="st28" d="M418.1,251.9c-3.7-3.5-27.3-8-40.9-6.2c-21.5,2.8-39,21.9-39,21.9
							s14.5,9.2,40.8,10.7C396.4,279.1,413.8,267.9,418.1,251.9z"/>
					</g>
					<g id="svga-group-eyesiriswrapper-right" transform="matrix(1,0,0,1,1,0.25)">
						<g id="svga-group-eyesiriscontrol-right" transform="matrix(1,0,0,1,0,0)">
							<g id="svga-group-eyesiris-right" transform="matrix(1,0,0,1,0,0)">
								<path id="SvgjsPath2836" class="st19" d="M402.5,261.5c0,14.1-11.4,25.5-25.5,25.5c-14.1,0-25.5-11.4-25.5-25.5l0,0
									c0-14.1,11.4-25.5,25.5-25.5C391.1,236,402.5,247.4,402.5,261.5L402.5,261.5z"/>
								
									<radialGradient id="SvgjsPath2837_1_" cx="-369.4338" cy="1001.3431" r="84.646" gradientTransform="matrix(0.288 -7.440000e-02 -7.350000e-02 -0.2883 556.6823 522.8048)" gradientUnits="userSpaceOnUse">
									<stop  offset="0" style="stop-color:#FFFFFF;stop-opacity:0.8"/>
									<stop  offset="1" style="stop-color:#FFFFFF;stop-opacity:0"/>
								</radialGradient>
								<path id="SvgjsPath2837" class="st29" d="M374.1,236.3c-0.1,0-0.2,0-0.3,0c0.1,0.6,0.2,1.2,0.4,1.7
									C374.2,237.5,374.2,236.9,374.1,236.3z M374.2,238c0.3,8.4,0.8,15.8,2.2,18.5C377.1,253.6,375.9,246.3,374.2,238z
									 M376.4,256.6c-0.2,0.7-0.5,1.2-0.9,1.4c-0.4,0.2-1,0-1.6-0.4c0.2,0.7,0.2,1.3-0.2,1.6c-0.3,0.3-0.9,0.4-1.6,0.3
									c0.5,0.6,0.7,1.1,0.6,1.5c-0.1,0.4-0.6,0.8-1.2,1c0.7,0.3,1.1,0.6,1.2,1c0.1,0.4-0.1,0.9-0.6,1.5c0.7-0.1,1.3,0,1.6,0.3
									c0.3,0.3,0.3,0.9,0.2,1.6c0.6-0.4,1.1-0.6,1.6-0.4c0.4,0.2,0.7,0.6,0.9,1.4c0.3-0.6,0.7-1.1,1.2-1.1
									c0.4-0.1,0.9,0.3,1.4,0.8c0-0.7,0.2-1.3,0.5-1.5c0.4-0.3,0.9-0.2,1.6,0.1c-0.3-0.6-0.4-1.2-0.2-1.6c0.2-0.4,0.7-0.6,1.5-0.7
									c-0.6-0.4-1-0.8-1-1.3c0-0.5,0.4-0.9,1-1.3c-0.7-0.1-1.2-0.3-1.5-0.7c-0.2-0.4-0.1-1,0.2-1.6c-0.7,0.3-1.2,0.3-1.6,0
									c-0.4-0.3-0.5-0.8-0.5-1.5c-0.5,0.5-0.9,0.8-1.4,0.8C377.1,257.6,376.7,257.2,376.4,256.6z M379,256.9
									c2-2.3,4.3-9.4,6.7-17.4C382,247,379,253.9,379,256.9z M385.6,239.5c0.3-0.5,0.5-1,0.8-1.6c-0.1,0-0.2-0.1-0.3-0.1
									C386,238.4,385.8,238.9,385.6,239.5z M381.1,258.4c2.9-1.1,8.2-6.3,14-12.3C388.4,251.1,382.6,255.7,381.1,258.4z
									 M395.1,246.1c0.4-0.3,0.9-0.6,1.3-1c-0.1-0.1-0.1-0.1-0.2-0.2C395.9,245.3,395.5,245.7,395.1,246.1z M382.3,260.7
									c3,0.4,10.2-1.8,18.2-4.4C392.2,257.6,384.9,259,382.3,260.7z M400.5,256.3c0.5-0.1,1-0.1,1.4-0.2c0-0.1,0-0.2-0.1-0.2
									C401.4,256,400.9,256.1,400.5,256.3z M382.3,263.3c2.5,1.7,9.9,3.2,18.1,4.5C392.5,265.1,385.4,263,382.3,263.3z
									 M400.4,267.8c0.4,0.1,0.8,0.3,1.2,0.4c0-0.1,0-0.1,0.1-0.2C401.3,268,400.9,267.9,400.4,267.8z M381.1,265.6
									c1.4,2.7,7.3,7.4,13.9,12.4C389.3,272,384,266.7,381.1,265.6z M395.1,278c0.2,0.3,0.5,0.5,0.8,0.8c0-0.1,0.1-0.1,0.1-0.1
									C395.6,278.5,395.3,278.3,395.1,278z M379,267.1c0,3.1,3,9.9,6.6,17.5C383.2,276.5,381,269.4,379,267.1z M385.5,284.6
									c0.1,0.3,0.2,0.6,0.3,1c0.1,0,0.1,0,0.2-0.1C385.8,285.2,385.7,284.9,385.5,284.6z M376.4,267.4c-1.4,2.7-2,10.2-2.3,18.5
									C375.8,277.7,377.1,270.4,376.4,267.4z M374.1,285.9c-0.1,0.3-0.1,0.6-0.2,1c0.1,0,0.1,0,0.2,0
									C374,286.6,374.1,286.3,374.1,285.9z M373.9,266.5c-2.5,1.7-6.5,8.1-10.7,15.3C368.6,275.4,373.2,269.4,373.9,266.5z
									 M363.3,281.8c-0.2,0.3-0.5,0.6-0.7,0.8c0.1,0,0.1,0.1,0.2,0.1C362.9,282.4,363.1,282.1,363.3,281.8z M372.2,264.5
									c-3,0.4-9.5,4.2-16.6,8.6C363.4,269.9,370.2,266.8,372.2,264.5z M355.6,273.2c-0.4,0.2-0.7,0.3-1.1,0.5
									c0,0.1,0.1,0.1,0.1,0.2C355,273.6,355.3,273.4,355.6,273.2z M371.6,262c-2.9-1.1-10.3-0.7-18.7,0
									C361.3,262.6,368.7,263.1,371.6,262z M352.9,261.9c-0.5,0-0.9-0.1-1.4-0.1c0,0.1,0,0.2,0,0.2C352,262,352.5,262,352.9,261.9
									z M372.2,259.5c-2-2.3-8.8-5.4-16.5-8.7C362.8,255.2,369.2,259.1,372.2,259.5z M355.7,250.7c-0.4-0.3-0.9-0.6-1.3-0.9
									c0,0.1-0.1,0.2-0.1,0.2C354.8,250.3,355.3,250.5,355.7,250.7z M374,257.5c-0.7-3-5.3-8.9-10.6-15.4
									C367.5,249.4,371.4,255.8,374,257.5z M363.4,242.1c-0.3-0.5-0.6-1-0.8-1.5c-0.1,0.1-0.2,0.1-0.2,0.2
									C362.7,241.2,363,241.7,363.4,242.1z"/>
								
									<radialGradient id="SvgjsPath2841_1_" cx="-361.0805" cy="1079.9797" r="84.7115" gradientTransform="matrix(0.2973 2.656898e-03 3.300000e-03 -0.2973 480.4697 583.6589)" gradientUnits="userSpaceOnUse">
									<stop  offset="0" style="stop-color:#FFFFFF;stop-opacity:0.8"/>
									<stop  offset="1" style="stop-color:#FFFFFF;stop-opacity:0"/>
								</radialGradient>
								<path id="SvgjsPath2841" class="st30" d="M380.8,236.4c-0.1,0-0.2,0-0.3,0c0,0.6-0.1,1.2-0.1,1.8
									C380.5,237.5,380.6,236.9,380.8,236.4z M380.4,238.1c-1.9,8.2-3.3,15.5-2.7,18.5C379.2,253.9,379.8,246.5,380.4,238.1z
									 M377.7,256.6c-0.4,0.6-0.8,1-1.2,1.1c-0.4,0-0.9-0.3-1.4-0.8c0,0.7-0.2,1.3-0.6,1.5c-0.4,0.2-0.9,0.2-1.6-0.1
									c0.3,0.7,0.4,1.2,0.2,1.6c-0.2,0.4-0.7,0.6-1.5,0.7c0.6,0.4,0.9,0.9,0.9,1.3c0,0.5-0.4,0.9-1,1.3c0.7,0.1,1.2,0.3,1.4,0.7
									c0.2,0.4,0.1,1-0.3,1.6c0.7-0.2,1.2-0.3,1.6,0c0.4,0.3,0.5,0.8,0.5,1.5c0.5-0.5,1-0.8,1.4-0.8c0.4,0.1,0.8,0.5,1.1,1.1
									c0.2-0.7,0.5-1.2,0.9-1.3c0.4-0.2,1,0,1.5,0.5c-0.2-0.7-0.1-1.3,0.2-1.6s0.9-0.4,1.6-0.3c-0.5-0.6-0.7-1.1-0.6-1.5
									c0.1-0.4,0.6-0.8,1.3-1c-0.7-0.3-1.1-0.6-1.2-1.1c-0.1-0.4,0.2-0.9,0.7-1.5c-0.7,0.1-1.3,0-1.6-0.4
									c-0.3-0.3-0.3-0.9-0.1-1.6c-0.6,0.4-1.1,0.6-1.6,0.4C378.1,257.8,377.8,257.3,377.7,256.6z M380.1,257.5
									c2.6-1.7,6.6-8,11-15.1C385.6,248.8,380.9,254.6,380.1,257.5z M391.1,242.4c0.4-0.4,0.8-0.9,1.1-1.3
									c-0.1-0.1-0.2-0.1-0.2-0.2C391.7,241.4,391.4,241.9,391.1,242.4z M381.8,259.5c3-0.3,9.6-4,16.7-8.3
									C390.7,254.3,383.9,257.3,381.8,259.5z M398.5,251.2c0.5-0.2,1-0.4,1.5-0.6c0-0.1-0.1-0.2-0.1-0.2
									C399.4,250.7,399,251,398.5,251.2z M382.3,262.1c2.8,1.1,10.3,0.9,18.7,0.4C392.7,261.6,385.2,261.1,382.3,262.1z
									 M401,262.5c0.5,0.1,1,0.1,1.4,0.2c0-0.1,0-0.2,0-0.2C402,262.4,401.5,262.5,401,262.5z M381.7,264.6
									c2,2.3,8.7,5.6,16.3,9.1C391,269,384.7,265,381.7,264.6z M398,273.6c0.4,0.2,0.7,0.5,1.1,0.7c0-0.1,0.1-0.1,0.1-0.2
									C398.8,274,398.4,273.8,398,273.6z M379.9,266.5c0.7,3,5.1,9,10.3,15.6C386.1,274.8,382.4,268.3,379.9,266.5z M390.2,282.1
									c0.2,0.3,0.4,0.7,0.5,1c0.1,0,0.1-0.1,0.2-0.1C390.6,282.7,390.4,282.4,390.2,282.1z M377.4,267.4
									c-0.8,2.9,0.3,10.3,1.8,18.6C379.1,277.6,378.8,270.1,377.4,267.4z M379.3,286c0,0.3,0,0.7,0,1c0.1,0,0.1,0,0.2,0
									C379.4,286.6,379.3,286.3,379.3,286z M374.9,267c-2.1,2.2-4.5,9.3-7,17.3C371.6,276.8,374.8,270.1,374.9,267z M367.8,284.3
									c-0.1,0.3-0.3,0.6-0.4,0.9c0.1,0,0.1,0,0.2,0.1C367.6,284.9,367.7,284.6,367.8,284.3z M372.8,265.5
									c-2.9,1-8.3,6.1-14.3,12.1C365.3,272.7,371.3,268.1,372.8,265.5z M358.5,277.5c-0.3,0.2-0.6,0.4-0.9,0.6
									c0,0,0.1,0.1,0.1,0.1C358,278,358.2,277.8,358.5,277.5z M371.6,263.1c-3-0.4-10.2,1.6-18.2,4
									C361.7,266.1,369,264.8,371.6,263.1z M353.4,267.2c-0.4,0.1-0.8,0.1-1.2,0.2c0,0.1,0,0.1,0.1,0.2
									C352.6,267.4,353,267.3,353.4,267.2z M371.7,260.5c-2.5-1.8-9.8-3.4-18-4.9C361.5,258.5,368.6,260.8,371.7,260.5z
									 M353.6,255.7c-0.4-0.2-0.9-0.3-1.3-0.5c0,0.1,0,0.2-0.1,0.2C352.7,255.5,353.2,255.6,353.6,255.7z M372.9,258.3
									c-1.4-2.7-7.1-7.5-13.7-12.7C364.9,251.7,370.1,257.1,372.9,258.3z M359.2,245.6c-0.4-0.4-0.7-0.8-1.1-1.2
									c-0.1,0.1-0.1,0.1-0.2,0.2C358.4,244.9,358.8,245.2,359.2,245.6z M375.1,256.8c0.1-3.1-2.8-10-6.2-17.6
									C371,247.3,373.1,254.5,375.1,256.8z M368.9,239.2c-0.1-0.5-0.3-1.1-0.4-1.7c-0.1,0-0.2,0.1-0.3,0.1
									C368.4,238.2,368.6,238.7,368.9,239.2z"/>
								<path id="SvgjsPath2845" class="st19" d="M387,261.5c0,5.5-4.5,10-10,10s-10-4.5-10-10s4.5-10,10-10
									C382.5,251.5,387,256,387,261.5z"/>
								<path id="SvgjsPath2846" class="st22" d="M387,261.5c0,5.5-4.5,10-10,10s-10-4.5-10-10s4.5-10,10-10
									C382.5,251.5,387,256,387,261.5z"/>
								
									<linearGradient id="SvgjsPath2847_1_" gradientUnits="userSpaceOnUse" x1="55.9505" y1="512.0364" x2="57.2775" y2="513.6165" gradientTransform="matrix(3 0 0 -3 195 1815.75)">
									<stop  offset="0" style="stop-color:#FFFFFF"/>
									<stop  offset="1" style="stop-color:#FFFFFF;stop-opacity:0"/>
								</linearGradient>
								<path id="SvgjsPath2847" class="st31" d="M363,273.2c1.9-1.3,4.5-0.8,5.8,1.1c1.3,1.9,0.8,4.5-1.1,5.8
									c-1.9,1.3-4.5,0.8-5.8-1.1C360.6,277.1,361.1,274.5,363,273.2L363,273.2z"/>
								
									<linearGradient id="SvgjsPath2851_1_" gradientUnits="userSpaceOnUse" x1="62.3878" y1="520.3622" x2="60.3878" y2="518.3622" gradientTransform="matrix(3 0 0 -3 195 1815.75)">
									<stop  offset="0" style="stop-color:#FFFFFF"/>
									<stop  offset="1" style="stop-color:#FFFFFF;stop-opacity:0"/>
								</linearGradient>
								<path id="SvgjsPath2851" class="st32" d="M384.9,260.1c-1.1,1.6-4.1,1.4-6.8-0.4c-2.7-1.8-4-4.6-3-6.2l0,0
									c1.1-1.6,4.1-1.4,6.8,0.4C384.6,255.8,386,258.5,384.9,260.1C384.9,260.1,384.9,260.1,384.9,260.1z"/>
								
									<linearGradient id="SvgjsPath2855_1_" gradientUnits="userSpaceOnUse" x1="65.9413" y1="523.8087" x2="61.9413" y2="519.8087" gradientTransform="matrix(3 0 0 -3 195 1815.75)">
									<stop  offset="0" style="stop-color:#FFFFFF"/>
									<stop  offset="1" style="stop-color:#FFFFFF;stop-opacity:0"/>
								</linearGradient>
								<path id="SvgjsPath2855" class="st33" d="M397,255.9c-2.4,3.7-8.7,3.9-13.9,0.5c-5.3-3.4-7.6-9.2-5.2-12.9
									c2.4-3.7,8.7-3.9,13.9-0.5C397.1,246.4,399.5,252.2,397,255.9L397,255.9z"/>
							</g>
						</g>
					</g>
					<g id="svga-group-eyesfront-right">
						<path id="SvgjsPath3518" class="st5" d="M380,189c-29.8,0-54,33.6-54,75s24.2,75,54,75s54-33.6,54-75
							C434,222.6,409.8,189,380,189z M379,278.2c-26.3-1.4-40.8-10.7-40.8-10.7s17.5-19,39-21.9c13.6-1.8,37.2,2.7,40.9,6.2
							C413.8,267.9,396.4,279.1,379,278.2z"/>
						
							<radialGradient id="SvgjsPath3519_1_" cx="-3.549" cy="531.4811" r="16.9217" fx="10.1052" fy="531.115" gradientTransform="matrix(-2.97 0.4233 0.3255 2.2824 184.2391 -961.1357)" gradientUnits="userSpaceOnUse">
							<stop  offset="0" style="stop-color:#E4B3AB"/>
							<stop  offset="0.7" style="stop-color:#E4B3AB;stop-opacity:0.3"/>
							<stop  offset="1" style="stop-color:#F3D4CF;stop-opacity:0"/>
						</radialGradient>
						<path id="SvgjsPath3519" class="st34" d="M419.1,239.9c-5.2-20.9-32.3-32.4-60.6-25.7c-28.2,6.7-46.9,29-41.7,49.9
							c5.2,20.9,32.3,32.4,60.6,25.7C405.7,283.1,424.3,260.8,419.1,239.9z M379,278.2c-26.3-1.4-40.8-10.7-40.8-10.7
							s17.5-19,39-21.9c13.6-1.8,37.2,2.7,40.9,6.2C413.8,267.9,396.4,279.1,379,278.2z"/>
						
							<radialGradient id="SvgjsPath3524_1_" cx="-55.3943" cy="497.3065" r="29.509" gradientTransform="matrix(-3.1008 0 0 -3.1008 216.247 1882.8186)" gradientUnits="userSpaceOnUse">
							<stop  offset="0.95" style="stop-color:#000000;stop-opacity:0"/>
							<stop  offset="1" style="stop-color:#000000;stop-opacity:0.3"/>
						</radialGradient>
						<path id="SvgjsPath3524" class="st35" d="M418.1,251.9c-3.7-3.5-27.3-8-40.9-6.2c-21.5,2.8-39,21.9-39,21.9
							s14.5,9.2,40.8,10.7C396.4,279.1,413.8,267.9,418.1,251.9z"/>
						<path id="SvgjsPath3528" class="st15" d="M337.7,251c19.5-12.8,12.2-9.3,48.7-20.1c-10,1.5-28.7,6.2-35.1,10
							C347.8,242.8,340.7,248.3,337.7,251z"/>
						<path id="SvgjsPath3529" d="M420.5,248.6c5.3-3.4,7.9-5.9,7.9-5.9s-10.3,3-15.9,2.6c5.4-1.8,7.9-4.6,9-5.6
							c-1.3,1-7.9,4.6-32,1.3c5.3-2,19.2-5.3,19.2-5.3c-41.7,2.1-67.8,18.2-71.5,22.5c0,0,9.9-5.5,17.3-6.9
							c-16.2,8.8-15,11.6-26.7,16.3c14.9,1.7,14.3,4,23.3,6.2c18.3,4.6,37.6,7.5,54-1.9c10.9-6.3,17.2-16.7,17.6-19
							c4.9,0,11.1-3.9,11.1-3.9S425,250.8,420.5,248.6z M379,277.6c-26.3-1.4-40.8-10.3-40.8-10.3s17.5-18.3,39-21.1
							c13.6-1.7,37.2,2.6,40.9,6C413.8,267.7,396.4,278.5,379,277.6z"/>
					</g>
				</g>
			</g>
			<g id="svga-group-facehighlight-single">
				
					<radialGradient id="SvgjsPath2772_1_" cx="36.6667" cy="492.2643" r="40.0343" gradientTransform="matrix(3 0 0 -3 190 1816)" gradientUnits="userSpaceOnUse">
					<stop  offset="0" style="stop-color:#FFF4F3;stop-opacity:0.5"/>
					<stop  offset="0.9" style="stop-color:#F3D4CF;stop-opacity:0"/>
				</radialGradient>
				<path id="SvgjsPath2772" class="st36" d="M420.6,339c0.1,66.8-54,121.1-120.8,121.2c-66.8,0.1-121.1-54-121.2-120.8
					c-0.1-66.8,54-121.1,120.8-121.2C366.2,218.1,420.5,272.2,420.6,339z"/>
				
					<radialGradient id="SvgjsPath2776_1_" cx="36.6667" cy="548.3333" r="36" gradientTransform="matrix(3 0 0 -3 190 1816)" gradientUnits="userSpaceOnUse">
					<stop  offset="0" style="stop-color:#FFF4F3;stop-opacity:0.5"/>
					<stop  offset="0.9" style="stop-color:#F3D4CF;stop-opacity:0"/>
				</radialGradient>
				<path id="SvgjsPath2776" class="st37" d="M405,168c0,58-47,105-105,105s-105-47-105-105S242,63,300,63S405,110,405,168z"/>
			</g>
			<g id="svga-group-eyebrows-left-move" transform="matrix(1,0,0,1,0,0)">
				<g id="svga-group-eyebrows-left-rotate" transform="matrix(1,0,0,1,0,0)">
					<g id="svga-group-eyebrows-left" transform="matrix(1,0,0,1,0,0)">
						<path id="SvgjsPath2797" class="st38" d="M224.4,207.2c-13.3-1.4-63.8,11.1-63.8,11.1s50.4-20.2,71.3-17
							c15.6,2.4,43.2,15.2,38.1,22C265.9,228.8,253.2,210.3,224.4,207.2z"/>
					</g>
				</g>
			</g>
			<g id="svga-group-eyebrows-right-move" transform="matrix(1,0,0,1,0,0)">
				<g id="svga-group-eyebrows-right-rotate" transform="matrix(1,0,0,1,0,0)">
					<g id="svga-group-eyebrows-right" transform="matrix(1,0,0,1,0,0)">
						<path id="SvgjsPath2798" class="st38" d="M329.2,222.6c-5.1-6.9,22.8-18.9,40.6-20.4c21.4-1.8,68.7,12.3,68.7,12.3
							s-47.7-7.9-61.1-6.3C348,211.5,333.3,228.1,329.2,222.6z"/>
					</g>
				</g>
			</g>
			<g id="svga-group-nose-single-move" transform="matrix(1,0,0,1,0,0)">
				<g id="svga-group-nose-single" transform="matrix(1,0,0,1,0,0)">
					<path id="SvgjsPath3571" class="st7" d="M276.8,348.7c-2.2,6.2,15.1,12.9,21.7,13.3c7.1,0.4,27.1-8.7,23.7-15
						c-3.6-6.6-16.9-0.9-22.6-0.9C293.8,346.2,279.8,340.4,276.8,348.7z"/>
					<path id="SvgjsPath3572" class="st15" d="M306.6,351.7c-0.7-1.6,3.6-4,5.2-4.5c2.3-0.7,7.5,0.7,7.3,2.5
						c-0.2,1.6-4.8-0.5-6.3-0.1C311.3,350.1,307.3,353.1,306.6,351.7z M285.6,350.2c2.1,0,5.3,1.4,5.8,0.2c0.7-1.4-4.7-3.2-6.3-3
						c-1.3,0.2-6,2.9-5.3,4C280.5,352.5,282.9,350.2,285.6,350.2z"/>
					<path id="SvgjsPath3573" class="st39" d="M299.6,340.4c2,0,5.4-1.9,5.9-5.7c2.3-16.7-1.6-60.7-5.9-60.7
						c-4.1,0-7.5,45.1-6.5,60.7C293.4,338.6,297.3,340.4,299.6,340.4"/>
				</g>
			</g>
			<g id="svga-group-hair-front" transform="matrix(1,0,0,1,0,0)">
				<path id="SvgjsPath3539" class="st40" d="M490.4,137.5C473.9,33.2,155.4-65.9,135,91.7c-2.7,54.4-32.7,221.8-35.7,252.1
					c18.1-56.4,61.3-16.4,116.3-149.6c14.7-35.6,35.4-119.8,93.9-125.4C338,66.2,359.8,80.5,368,107c26-13.2,26.5,41.8,30.1,70.6
					c4.8,37.5,0.1,55.2,22.3,82.5c0.2,0.5,4.1,4.8,4.1,4.8c34.5,37.9,69,36.4,78,74.2C506,354,485.2,136.1,490.4,137.5z"/>
				<path id="SvgjsPath3540" class="st1" d="M32,204c-0.2,1.6-0.4,3.2-0.5,4.7c-11,20.1-0.6,51.2,21.6,57.2
					c9,7.8,20.8,12.4,30.6,13.5C37.1,288.2,10.5,240.5,32,204z M423,452.4c5.6,34-24.8,37.1-52.5,57.8l-0.4-0.4
					c10.7-12.5,26.5-14.4,36.7-25.8c16.5-18.4-0.8-43.3,4.3-61.6c8.8-32.5,64.8-32.3,64.8-73.7c-0.3-34.2-30.5-32.2-41-78
					c12,12.7,24.7,21.6,42.3,28.1c6.2,8.3,16.1,30.9,6.3,44.3l-0.4-0.2c3.1-9.8,0.3-21.5-4.9-28.5c-5.7-7.5-10.6-8.9-15.6-11.6
					c19.4,25,18.4,45.7,18.4,45.9c0,54.4-73.5,34.8-59.7,95.5C422.4,449.2,422.6,450.3,423,452.4L423,452.4z M84.2,279.2
					c-2.2,0.6-4.4,1-6.8,1.4c-58,53.2,24.5,133.4,62.4,78.2l-0.4-0.4c-4.5,4-9.4,6-14.6,6h0c-14.9,0-27.3-17.5-23.1-32.3
					c8.3-29.8,50-40.3,68.1-65.9c10-14,21.7-39.2,28.2-56.8l-0.5-0.2C170.2,258.1,126.3,284.5,84.2,279.2z M164.2,275.5
					c-7.8,20.1-52.9,41.6-40.4,69.5l0.6-0.2c-1.2-6.4,0.7-13.1,5.8-20.5c17-24.7,43.3-24.1,48.8-68.8l-0.6-0.2
					C174.1,263.5,172.4,266.9,164.2,275.5z M508.3,322.7c3,3.3,7,9.4,9.1,16.4l0.6-0.1c0.9-23.7-20.4-33.3-40.3-40.1
					c3,4.4,40.1,30.9,17.3,65.2c-19.2,28.7-62.6,30-73.5,66.9c0.6,7.8,3.2,15.6,4,24.7c5.6,10.5,4.3,16.6,2.9,20.3l0.5,0.3
					c7.9-12,2.5-19.4-0.1-26.4c-14.6-40.2,35.6-52.6,64.2-78.6C515.4,349,514.1,332.8,508.3,322.7z M519.6,263
					c12.8-0.4,26.9-8.8,29.9-24.6l-0.5-0.2c-11.9,17-28.2,13.3-33,9.7c12.4-9.6,20.6-23.6,22.5-41.5c2.6-24.3-7.4-50.9-18.6-64.7
					c2-13.2-2.2-16.5-9.7-23.3l-0.4,0.4c8.3,12.1-5.8,31.2-22.3,6.1c3.4,4.7,8,9.7,13.6,11.2C483.4,25.4,412.2-13,372,1.3
					C237.4-88.8,109.9,10.7,88.2,178.2c-26-19.9-51.7-4.5-54.8,27.8c-8.6,83.6,109.7,113.2,172-20.2
					c17.3-37.1,41.3-116.6,103.4-122.6c2.2-0.2,4.4-0.3,6.5-0.3c26.8,0,45,17.1,53,43c27.6-14.1,37.1,39.1,41,69.8
					c5.1,39.9,0.1,58.7,23.7,87.7c0.2,0.5,4.3,5.1,4.3,5.1c36.6,40.2,69,24.8,80.2,59.7c4.9,15.4-4.2,28.1-14.5,40.3
					c5-1.8,15.4-2.9,25.5-9C561,339.9,566.2,295.7,519.6,263z"/>
				<path id="SvgjsPath3541" class="st41" d="M240,109.3c10.5-25.5,40.3-49.2,84.3-47.4c21.1,0.9,46.1,25.8,43.6,45.3
					C340.6,81.9,279.8,81.9,240,109.3z"/>
				<path id="SvgjsPath3542" class="st2" d="M511.3,119.4c6.8,6.2,9.3,8.9,8.9,17.7c-4.4,19.9-28.5,13.1-40.8,1.6
					C503.3,150.7,520.2,137.1,511.3,119.4z M549.5,238.4l-0.2-0.1c-2.2,5.3-5.1,10.2-9.4,14.5c-21,15-48,6-66-9
					c12.5,14.3,29.3,20,46.5,19.8c-0.3-0.2-0.6-0.4-0.9-0.7C532.4,262.6,546.5,254.2,549.5,238.4z M63,318.8
					c2.8-15.2,10.1-27.9,19.4-39.2c0,0-2.4,0.6-5,1c-40.5,37.1-12.5,87.7,21.5,95.7C76.7,365.2,60.9,344.3,63,318.8z M197.4,209.2
					c-4.2,15.9-20.4,46.9-27.7,57.1c-18.2,25.7-59.9,36.1-68.1,65.9c-5.5,19.7,17.9,43.8,37.7,26.3l0.4,0.4
					c-1.2,1.7-2.4,3.3-3.7,4.8c-34.7,26.7-61.5-26.4-34-53.8C131.6,280.3,172.1,279.6,197.4,209.2z M83.4,279.4
					C41.9,289.6,8.8,243.2,32,204c-0.2,1.6-0.4,3.2-0.5,4.7c-11,20.1-0.6,51.2,21.6,57.2C62.1,273.6,73.6,278.3,83.4,279.4z
					 M507.6,367.2c-3.2,0.8-3.1,0.8-4.5,1.3c10.3-12.2,19.4-24.9,14.5-40.3c-11.4-35.5-44.8-18.9-82.4-62.1c-0.1-0.4-0.1-0.4,0,0
					c-25.9-29.8-20.7-50.6-25.9-90.4c-3.9-30.6-13.4-83.8-41-69.8c-9.6-31.1-32.1-45.3-59.5-42.6c-62.2,6-86.1,85.5-103.4,122.6
					C151.9,300.3,57.3,294.6,36.9,238.2c6.5,6.6,26.8,22.6,35.8,24.9c48.9,12.6,83.3-16.2,104.3-61.2c30-66,63-180,153-156
					c18,6,39,24,42,48c3-12,15.4-4.5,18-3c22.6,13.2,24,93,36,141c6,24,24,39,42,48c27,12,75,30,57,66c20.3-12.2,25.5-34,21.1-55.2
					C563.6,320.9,551,357.1,507.6,367.2z M483.4,343l-0.4-0.2c3.1-9.8,0.3-21.5-4.9-28.5c-5.7-7.5-10.6-8.9-15.6-11.6
					c13.4,16.7,19.1,36.7,18.4,45.9c0,26.8-18.6,36.1-36,46.1c12.2-9.5,26.1-16.8,32.1-30.8c3.4-10.3,4.3-28.1-6.1-41
					c-35-43.5-33.8-43-35.8-51.9c11.8,12,23.3,21,42.1,27.8C483.3,307.1,493.3,329.6,483.4,343z M518,339l-0.6,0.1
					c-2.1-7-6.1-13.1-9.1-16.4c5.9,10.1,7.1,26.3-15.2,48.7c-28.7,25.9-78.9,38.4-64.2,78.6c2.6,7,8.1,14.5,0.1,26.4l-0.5-0.3
					c1.4-3.7,2.7-9.8-2.9-20.3c-0.8-9.2-3.5-16.9-4-24.7c10.9-36.9,54.3-38.2,73.5-66.9c22.7-34.2-14.2-60.6-17.3-65.2
					C497.6,305.7,518.9,315.3,518,339z M416.8,34.4c5-0.3,20.7,3,35.1,16.4c0.8,0.7,3.5,2.6,3.8,3.7c-0.2-0.6-1.3-1.6-1.7-2.1
					C428,20.3,391.4,22,375.3,56C386.5,38.2,397.4,33.7,416.8,34.4z M375.9,37.5c9.4-20.6,19.6-24.1,35-27.4
					c-7.3,2.1-13.5,5.7-19.7,9.9C384.6,24.5,379.9,30.7,375.9,37.5z M295.3-10.4c18.6,0.3,29.2,0.2,47.7,8.6
					c12,5.4,24.2,19.9,27.4,31.7c0.3,1,0.4,2.9,1.1,3.7c-0.5-0.6-0.7-1.7-1-2.4c-2.7-6.5-6.7-12.1-11.7-16.8
					c-9.1-8.7-27.9-18.2-39.8-21.1C311.1-8.5,303.2-9.4,295.3-10.4z M256.4,25.4c26.5-8.9,55.6-14.1,81.3-0.2
					c21.7,11.8,37.4,47.7,36.1,63.5c0.1-1.3-0.4-2.9-0.6-4.2c-1.3-8.2-3.6-17-11.2-29.4C337.9,16,300.5,13.5,256.4,25.4z M375.3,76
					c13.9-16.8,29.7-24,46.7-10.3c9.1,7.4,16.2,22.4,22.6,36.4c0.9,2,3.1,5.2,3.4,7.4c-0.1-0.7-10.9-17.6-11.2-18.2
					C412.4,54.3,396.8,56,375.3,76z M386.6,84.7c6.4-2.8,17.7-7.7,31.9,11.2c26.8,35.5,25.3,90.7,27.7,95.5c0,0-7.5-33.6-17.6-61.5
					C421.5,109,410.3,74.7,386.6,84.7z M388.5,2.8C373.3,26.4,375,40.5,373.9,45C373.9,30.3,372.7,22,388.5,2.8z M155.8,59.3
					c13.4-21.8,30.9-42.6,53-56.1c26.2-14.9,61.6-17.3,68.9-15.6c-1.2-0.3-3.3,0.3-4.5,0.4c-33.4,3.2-71,24.6-92.4,44.2
					C171.7,40.6,163.7,49.7,155.8,59.3z M253.8,30.5c-31,9.6-49.6,34.9-64.2,64.9c-27.4,56.4-32.7,79.4-38.1,100.3
					C152.3,192.7,168.4,48.5,253.8,30.5z M66.2,191c-10.7,24.8,22.7,35.8,48,15.5c4.9-3.9,10.3-9.3,13.1-15
					C103,241.6,49.7,219.2,66.2,191z M59.1,229.1c9.7,20.2,33.1,24.5,52.6,16.6c30.4-12.3,33.8-38.4,35.8-42.9
					c-1.4,3.1-0.4,11.7-8.3,25.7C118,266,69.3,259.3,59.1,229.1z M454.7,141c15,22.7,38,99,82.9,47.6c-3.8,4.3-23.6,37.7-52.5,12.8
					c-8.1-8.2-13.5-19.1-18-29.6C464.8,166.5,454.7,141,454.7,141z"/>
				<path id="SvgjsPath3543" class="st3" d="M33.1,218.9c-0.2-4.2-0.2-8.5,0.3-12.9c2.1-21.9,14.9-36.7,31.8-36.7
					c6.1,0,12.4,2,18.7,5.9C55.2,166.1,37.3,190.9,33.1,218.9z M79.4,264c1.2,0.4,3,0.5,4.1,1.1c-3.5-1.8-7.1-3.3-10.4-5.5
					c-26.1-17.1-28.2-49.8-16.8-66.4c6-8.7,14.6-12.7,24.2-16.1C31.7,182.9,24.9,247.7,79.4,264z M205.4,109.7
					c25.6-45.8,57-79,109.8-75.3c26.3,1.9,37.7,16.4,40.7,18.7c-2.1-1.6-3.6-4.1-5.6-5.9C318,18.7,249.1,21,203.9,93.9
					c-42.3,68.2-25.1,143.1-92.9,170.4C176.3,242.7,167.1,178.3,205.4,109.7z M421.7,47.8c12.1,7.6,18.7,22.2,25.3,34.3
					c10.4,19.1,34,60.1,55.6,57.7c-2.5,0.3-6.1-1.6-8.2-2.6c-20.8-9.9-30-43.2-41.9-62.4c-21.2-34.5-40.2-46.6-69.4-18.2
					C394.1,48.3,408,39.2,421.7,47.8z M452,165.3c0.9,0,3.9,11.6,4.2,12.7c9.7,31.5,16.9,61.1,41.3,73.8c10,5.2,22.6,5.8,33.2,1.8
					c-5,1.9-18.3,2.1-28.4-3.3C478.2,237,463.9,187.5,452,165.3C452,165.3,453.1,167.2,452,165.3z M488.4,192.1
					c24.6,24.8,49.7-6.5,49.7-6.5c-0.2-0.1-3.9,2.9-4.3,3.2c-17.4,11.9-33,15.6-58.1-28.6c-4.4-7.8-8.1-16.8-13.8-23.8
					C469.5,152.5,475.4,179,488.4,192.1z M480.8,267.9c27.9,10.9,44.6,13.4,52.7,43.4c0.7,2.7,2.1,6.1,2.2,8.9
					c0-2.6-0.8-5.5-1.2-8.1c-8.8-48.6-50.7-39.5-74.8-67.3c-22.7-26.3-20.1-73.1-43.6-134.5C441.9,198.5,422.3,245,480.8,267.9z
					 M216.1-9.5c3.7-3.6,9.4-5.8,14.2-7.4c22.7-8,46-5.4,63.2-4.6c39.9,2,59.4,14.1,75.7,30.1C329.3-43.9,242.6-35.2,216.1-9.5z
					 M134,67.8c-3.5,7.9-7.5,16.5-9.2,25c0.2-1.3,1.1-2.6,1.6-3.8c8.7-19.4,16.7-30.9,28.6-45.5c11.4-16.7,28.1-33.2,47.4-40.3
					C178.8,9.1,150.4,31.1,134,67.8z M117.1,167.3c-0.6,3.1-1.7,6.6-1.7,9.8c0-2.6,1.7-5.9,2.5-8.4c6.5-21,11.5-32.5,19.1-51
					c7.3-17.8,10.9-34.1,31.9-62.1C137.8,88.2,125.4,123.4,117.1,167.3z M166.1,83.8c-8.4,14.5-18.4,48.4-20.1,60.1
					c0.5-3.2,8.7-22.8,11-27.9c4.7-10.6,10.8-20.4,15.9-30.8c18.5-37.7,37.1-46.2,43.5-50.7C195.2,44.3,180.4,58.8,166.1,83.8z
					 M98.2,232.9c10.6,0.1,20.2-4.1,28.2-10.8c14.9-12.5,16.5-47,15.9-50c0.3,1.8-1,4.9-1.4,6.6c-6.1,25.1-16.3,33.5-19.2,37
					c-15.6,18.6-37.7,12.8-49.3,12.1C80.5,230.4,89.6,233.8,98.2,232.9z M406.7,21.9c6.9-1.6,16.4-4.1,26.3,1.1
					c2.3,1.2,4.1,2.9,6.2,4.3c-2-1.4-3.4-4-5.5-5.6c-12.8-9.7-37.9-12.3-54.6,21.1C385.9,33.1,394.7,24.7,406.7,21.9z M424.1,95.5
					c15.5,24.9,20.8,45.6,21,48.6c-0.8-13.5-8.4-40.5-17-52.8c-14.5-20.5-31.9-27.9-49-8.9C397.3,66,411,74.5,424.1,95.5z M346.3,22
					c12.5,11.9,19,19.7,25.3,35.9c0.5,1.2,2.4,4.4,2.1,5.7c0.5-3-7.1-37.5-24.9-50.1C333,2.2,313.9-1.8,294.6-0.1
					C314.1,1.7,331.9,8.3,346.3,22z M79.6,343c2.7,9.9,9,17,15.6,24.5c-6.3-7.2-11.4-17-12.6-26.5c-3.8-31.4,42.5-58.9,54.7-67.4
					C107.1,289.1,70.4,309.8,79.6,343z M477,363.9c2.7-8.1,3.4-17.1,0.8-25.4c-4.5-14.3-30.9-38.6-39.1-55.6
					c6.2,27.9,38.5,34.8,37.1,67.7c-1.7,40.4-61.3,40.5-65.5,75.6c-2.6,21.4,16.9,47.3-13.3,65.7c-6.9,4.2-14.5,7.3-21,12.3
					c-5.1,3.9-7.8,7.6-3.7,4.7c18.2-13.1,34.1-17.1,44.6-29.5c17.7-20.9-7-45.1,6.6-66.9C433,397.1,467.5,385.9,477,363.9
					C480.3,353.9,471,377.8,477,363.9z"/>
				<path id="SvgjsPath3544" class="st4" d="M520.8,263.5c16.2-0.7,26.7-9.2,29.6-28.4c-9.5,14.6-24.2,17.3-33.5,12.5
					c33.8-26.6,26.6-73.2,3.4-105.1c2.2-9.7,0.2-18.7-13.4-26.7c8.7,7.4,4.5,21.6-5,20.2C489.7,26.5,421.2-13.6,371.8,0.3
					c-40.6-29.2-85.7-44.5-137.6-30.9C130.2-3.4,102.6,86.7,87.7,177.5c-6.2-4.2-14.8-9.3-22.3-9.4c-18.6-0.2-30.7,17.4-33.1,34.2
					C7,239.3,34.1,286.3,76.4,281c-51,45.8,4.1,116,47.4,92.8c8.7-4.6,15.1-12,18-18.2c-14.5,18.7-40.7,1.9-39.7-17.5
					c1.4-26.6,41.8-41.6,60.8-61c-7.9,15.7-55.1,41.1-38.7,69.3c0,0,0.6,0.9,0.6,1c-6.1-36.7,49.9-33.5,54.6-93.6
					c33.6-62.4,48.8-152,104-181.4c32.3-17.2,70.1-9.7,84.8,34.3c38.8-23.2,40.1,106.6,41.8,116.7c2.9,18.3,12.2,34.3,24.8,47.7
					c8.6,41,29.1,40.6,37,64c2.3,6.9,2.6,14.9,1,22c-8.8,36.5-73.9,32-64.4,82.8c2.6,13.9,10.4,33.5-7.5,47.8
					c-11.2,9-26.9,13.2-34.3,26.2c28.3-22.4,61.5-24.7,59.2-57.2c4.4,9.6,4.4,16.3-0.8,25.1c0.1-0.1,2.3-2.6,2.3-2.7
					c19-22.7-13.1-34.6,7-60.9c17.7-23,92.4-50.1,76.1-90.9c2.3,3.8,5.6,11.4,6.9,15.1c-1.4,9.1-8.8,19.6-14.9,26.4
					c6.4-1.5,17.9-3,28.1-9.3C565.4,337.8,565.6,293.5,520.8,263.5z M51.3,264.3c-16.6-6.3-29-33.6-19.9-54
					C30.3,229.5,37.1,251.2,51.3,264.3z M32,204c-0.2,1.6-0.4,3.2-0.5,4.7c-11,20.1-0.6,51.2,21.6,57.2c9,7.8,20.8,12.4,30.6,13.5
					C37.1,288.2,10.5,240.5,32,204z M130,324.1c-4.3,6.3-7.3,13.3-5.9,20.8c-12.4-27.7,32.6-49,40.4-69.3
					c8.1-8.5,9.8-11.9,14.2-20.2C173.2,299.9,146.9,299.4,130,324.1z M169.5,266.1c-18.1,25.5-59.9,36.1-68.2,66
					c-5.6,19.9,18.1,44.3,38.2,26.6c-37.6,54.7-119.6-24.9-61.9-77.9c2.3-0.3,4.5-0.8,6.7-1.3c29,3.8,66.6-8.9,94.9-43
					c0,0,0.1,0,0.1-0.1c7-8.4,13.1-17.6,18.4-27.2C191.4,226.5,179.5,252,169.5,266.1z M370.3,509.9c10.6-12.4,26.5-14.4,36.7-25.8
					c16.6-18.5-0.7-43.5,4.3-61.8c8.7-32.4,64.8-32.1,64.8-73.7c-0.3-34.1-30.7-33.1-40.8-77c13.4,14.1,27.1,22,41.7,27.3
					c5.8,7.9,16,30.5,6.1,43.8c3.5-9.5,0.4-21.8-4.8-28.7c-6.2-8.2-11.5-9.1-17-12.5c20.6,25.7,19.3,46.9,19.3,46.9
					c0,52.3-71.7,37.6-60.8,90.7c0.6,3,1.9,8.1,2.7,12.3c0,0-0.1-0.1-0.1-0.1c0.1,0,0.1,0.1,0.1,0.1
					C428.8,486.2,398.3,489,370.3,509.9z M485.2,372.7c-20.8,19.2-51.9,24-63.4,56.6c-0.9-31.6,40.3-30.9,55.5-59.9
					c5.1-9.7,5.9-22,4.8-24.2c0-7.6-4.8-23.6-18.8-41.6c22.5,13.2,22.1,34,19.3,40.4c6.6-4.6,10.1-23.2-2.9-42.8
					C504.1,323.7,509.6,348.4,485.2,372.7z M506.7,320.8c7.8,11.2,8.4,28.2-13.8,50.4c-28.7,25.9-79.1,38.4-64.3,78.9
					c2.7,7.1,8,14.3,0.1,26.2c1.8-4.6,2.3-10.8-2.9-20.6c-0.7-8.9-3.4-16.8-4-24.6c10.9-36.7,54.1-37.9,73.5-66.7
					c22.8-34.4-14.8-61.8-16.8-64.8c8.7,3,40.3,11.8,39.2,39.5C515.2,330.9,510,323.4,506.7,320.8z M528.4,359.2
					c-10,6-21.4,7.5-24.4,8.6c10.2-12,18.7-24.6,13.8-39.7c-11.3-35.2-43.6-19.5-80.3-59.8c-0.3-0.4-4.1-4.6-4.3-5
					c-23.5-29-18.6-47.9-23.7-87.6c-3.9-30.5-13.7-84.2-41.2-70.1c-8.6-27.7-29-45.5-59.7-42.5c-62.5,6-85.9,84.6-103.7,122.8
					c0,0,0,0.1,0,0.1C143.2,318.2,25.1,289.7,33.7,206c3.1-31.4,28.4-47.9,54.8-27.2C110.5,6.4,240.7-86.2,371.8,1.6
					c44.6-14.8,112.5,29.8,128.9,134.3c-8.9-2.5-18.2-17.6-20.2-24.6c1.5,5.3,4.3,10.4,7.3,14.9c17.2,24.2,30.4,4.4,22.2-7.4
					c8.7,7.9,10.9,10,9.6,22.9c0,0.1,0,0.1,0,0.2c17,20.8,34,75.5-3.3,105.5h0c-0.2,0.2-0.5,0.4-0.8,0.6c3.3,2.8,20.7,9,33.7-9.6
					c-2.9,15.3-16.7,24.4-30.5,24.4C565.9,295.4,560.7,339.7,528.4,359.2z"/>
			</g>
			<g id="svga-group-glasses-single-move" transform="matrix(1,0,0,1,0,0)">
				<g id="svga-group-glasses-single" transform="matrix(1,0,0,1,0,0)">
					<path id="SvgjsPath2899" class="st42" d="M300,54.4L300,54.4L300,54.4L300,54.4z"/>
				</g>
			</g>
		</g>
	</g>
</g>
<rect id="SvgjsRect1052" y="555" class="st43" width="600" height="45"/>
</svg>
